<?xml version="1.0" encoding="utf-8"?>
<!-- Generator: Adobe Illustrator 18.1.1, SVG Export Plug-In . SVG Version: 6.00 Build 0)  -->
<!DOCTYPE svg PUBLIC "-//W3C//DTD SVG 1.1//EN" "http://www.w3.org/Graphics/SVG/1.1/DTD/svg11.dtd">
<svg version="1.1" id="Layer_1" xmlns="http://www.w3.org/2000/svg" xmlns:xlink="http://www.w3.org/1999/xlink" x="0px" y="0px"
	 width="400px" height="400px" viewBox="0 0 400 400" enable-background="new 0 0 400 400" xml:space="preserve">
<path id="Logo" d="M12.3,198.8c0-103.6,84-187.6,187.6-187.6c103.6,0,187.6,84,187.6,187.6c0,103.6-84,187.6-187.6,187.6
	C96.3,386.4,12.3,302.4,12.3,198.8 M200,22.3c-97.3,0-176.5,79.2-176.5,176.5S102.7,375.2,200,375.2c97.3,0,176.5-79.2,176.5-176.5
	S297.3,22.3,200,22.3 M200,383.5c101.9,0,184.8-82.9,184.8-184.8C384.7,96.9,301.9,14,200,14S15.2,96.9,15.2,198.8
	C15.2,300.7,98.1,383.5,200,383.5 M200,8.3c105,0,190.5,85.5,190.5,190.5c0,105.1-85.5,190.5-190.5,190.5
	c-105,0-190.5-85.4-190.5-190.5C9.5,93.7,94.9,8.3,200,8.3 M233.4,235.5c1.4,0,2.6-1.2,2.6-2.6c0-1.4-1.2-2.6-2.6-2.6h-66.8
	c-1.4,0-2.6,1.2-2.6,2.6c0,1.4,1.2,2.6,2.6,2.6H233.4 M148.5,258.6v-2.4h-8.6v2.4h1.7l0.7,2.4l-2.9,7.7h-0.2l-2.7-10h1.7v-2.4h-9
	v2.4h2l4.2,14.4h4.6l3.2-8.7l2.6,8.7h4.6l4.3-14.4h2v-2.4h-6.7v2.4h2.1l-2.6,10h-0.2l-2.8-10H148.5z M166.9,263.4v-4.8h2
	c2.1,0,2.6,0.7,2.6,2.4c0,1.9-0.9,2.4-2.6,2.4H166.9z M166.9,265.7h1.8c1.6,0,2.1,0.7,2.1,2.6v0.4c0,3,1,4.6,4.2,4.6
	c2.7,0,3.7-1.8,4.2-4.1l-1.6-0.5c-0.3,1.3-0.6,1.7-1,1.7c-0.5,0-0.7-0.3-0.8-1.4l0-0.6c-0.1-2.1-1.2-3.6-4.7-3.7v-0.2
	c4.2-0.4,5.6-2,5.6-4.1c0-2.1-1.8-4.2-6.9-4.2h-9.6v2.4h2.1v11.8h-2.1v2.4h9.1v-2.4h-2.2V265.7z M181.9,273h9.1v-2.4h-2.1v-11.8h2.1
	v-2.4h-9.1v2.4h2.1v11.8h-2.1V273z M198.5,273h9.8v-2.4h-2.5v-12.2h0.4c2,0,2.4,0.7,3.2,5h2.4v-7.1H195v7.1h2.4c0.8-4.3,1.2-5,3.2-5
	h0.4v12.2h-2.5V273z M215.9,273h9.1v-2.4h-2.1v-11.8h2.1v-2.4h-9.1v2.4h2.1v11.8h-2.1V273z M240.9,273.1h5.1v-14.4h2v-2.4h-6.6v2.4
	h2.1v9h-0.2l-6.5-11.5h-7.8v2.4h2v11.8h-2v2.4h6.6v-2.4h-2.1v-10h0.2L240.9,273.1z M259.7,273.4c2.7,0,4-1.3,4.7-2.8l1.1,2.6h2.6
	v-6.5h1.8v-2.4h-9.2v2.4h2.7v0.4c0,1.4-0.3,2.4-0.9,3.1c-0.5,0.5-1.1,0.7-1.9,0.7c-2.5,0-3.7-2.4-3.7-6.4c0-4.4,1.5-6.4,3.7-6.4
	c1.8,0,3,1.2,3.9,4.2h3.4v-6.5h-2.6l-0.6,2.1c-1-1.4-2.5-2.1-4.7-2.1c-4.3,0-8.2,3.6-8.2,8.8C251.7,270,255.1,273.4,259.7,273.4
	 M111.2,292.7V287h1.5c2.1,0,2.8,0.8,2.8,2.8c0,2-0.7,2.9-2.8,2.9H111.2z M104.4,301.4h9.1V299h-2.2v-3.9h1.9c5.2,0,7.4-2.1,7.4-5.2
	c0-3.2-2.1-5.2-7.4-5.2h-8.7v2.4h2V299h-2V301.4z M126.1,295.4c0,4.1,2.4,6.5,7.6,6.5c4.8,0,6.9-3,6.9-6.6v-8h1.9v-2.4h-6.6v2.4h2.1
	v7.3c0,1.7-0.4,2.9-1,3.6c-0.6,0.6-1.4,0.9-2.5,0.9c-2.3,0-3.5-1-3.5-4.1v-7.8h2.3v-2.4H124v2.4h2.1V295.4 M152.8,299v-5h1.6
	c2.3,0,3.1,0.9,3.1,2.4c0,1.9-0.7,2.6-3,2.6H152.8z M152.8,291.6v-4.4h1.6c2.1,0,2.6,0.6,2.6,2.1c0,1.5-0.6,2.3-2.6,2.3H152.8z
	 M145.9,301.4h9.2c5.3,0,7.2-2,7.2-4.5c0-2.3-1.5-3.7-5.1-4.1v-0.2c3.4-0.5,4.6-2,4.6-3.9c0-1.9-1.2-4-6.9-4h-9v2.4h2.1V299h-2.1
	V301.4z M166.2,284.7v2.4h2.1V299h-2.1v2.4h15.2v-7.2h-2.3c-1,4.3-1.5,4.8-3.5,4.8H173v-12h2.4v-2.3H166.2z M185.5,301.4h9.1V299
	h-2.1v-11.8h2.1v-2.4h-9.1v2.4h2.1V299h-2.1V301.4z M199.1,301.8h2.5l0.6-2.1c0.9,1.2,2.8,2.1,5,2.1c3.8,0,6.4-2.2,6.4-5.5
	c0-3.7-3.1-4.7-5.9-5.3c-2.6-0.6-4.3-0.9-4.3-2.4c0-1,0.9-2,2.6-2c2.3,0,3.4,1.2,4.3,3.7h2.5v-6h-2.5l-0.5,1.8
	c-0.8-1.1-2.3-1.9-4.3-1.9c-3.3,0-6.1,2.1-6.1,5.5c0,3.9,3.2,4.8,6,5.5c2.6,0.6,4.1,0.9,4.1,2.2c0,1.1-0.9,2-2.7,2
	c-2.8,0-4.3-1.4-5.1-4h-2.5V301.8z M217.3,301.4h9.1V299h-2.2v-5h6v5h-2.2v2.4h9.1V299h-2.1v-11.8h2.1v-2.4h-9.1v2.4h2.2v4.4h-6
	v-4.4h2.2v-2.4h-9.1v2.4h2.1V299h-2.1V301.4z M241.1,301.4h9.1V299h-2.1v-11.8h2.1v-2.4h-9.1v2.4h2.1V299h-2.1V301.4z M266.1,301.6
	h5.1v-14.4h2v-2.4h-6.6v2.4h2.1v9h-0.2l-6.5-11.5h-7.8v2.4h2V299h-2v2.4h6.6V299h-2.1v-10h0.2L266.1,301.6z M285,301.8
	c2.6,0,4-1.2,4.7-2.8l1.1,2.6h2.6v-6.5h1.8v-2.4h-9.2v2.4h2.7v0.4c0,1.4-0.3,2.4-0.9,3.1c-0.5,0.5-1.1,0.7-1.9,0.7
	c-2.5,0-3.7-2.3-3.7-6.4c0-4.5,1.5-6.4,3.6-6.4c1.9,0,3,1.2,3.9,4.2h3.4v-6.5h-2.6l-0.6,2.1c-1-1.4-2.5-2.1-4.6-2.1
	c-4.3,0-8.3,3.6-8.3,8.8C276.9,298.4,280.4,301.8,285,301.8 M124.9,329.9h9.8v-2.4h-2.5v-12.2h0.4c2,0,2.4,0.7,3.2,4.9h2.4v-7.1
	h-16.8v7.1h2.4c0.8-4.3,1.2-4.9,3.2-4.9h0.4v12.2h-2.5V329.9z M143.2,323.8c0,4.1,2.4,6.5,7.6,6.5c4.8,0,6.9-3,6.9-6.6v-8h2v-2.4
	H153v2.4h2.1v7.3c0,1.7-0.4,2.9-1,3.6c-0.6,0.6-1.4,0.9-2.5,0.9c-2.3,0-3.5-1-3.5-4.1v-7.8h2.3v-2.4h-9.1v2.4h2.1V323.8 M166,329.9
	h9.8v-2.4h-2.5v-12.2h0.4c2,0,2.4,0.7,3.2,4.9h2.4v-7.1h-16.8v7.1h2.4c0.8-4.3,1.2-4.9,3.2-4.9h0.4v12.2H166V329.9z M195.1,321.5
	c0,4.7-1.1,6.5-3.5,6.5c-2.4,0-3.7-1.8-3.7-6.5c0-4.7,1.1-6.5,3.5-6.5C193.8,315,195.1,316.8,195.1,321.5 M182.7,321.6
	c0,5.4,3.6,8.7,8.8,8.7c5,0,8.8-3.4,8.8-8.8c0-5.4-3.6-8.7-8.8-8.7C186.4,312.7,182.7,316.2,182.7,321.6 M210.6,320.3v-4.8h2
	c2.1,0,2.6,0.7,2.6,2.4c0,1.9-0.9,2.4-2.6,2.4H210.6z M210.6,322.6h1.8c1.6,0,2.1,0.7,2.1,2.6v0.4c0,3,1,4.6,4.2,4.6
	c2.7,0,3.7-1.8,4.2-4.1l-1.7-0.5c-0.3,1.3-0.6,1.7-1,1.7c-0.5,0-0.7-0.3-0.8-1.4l0-0.6c-0.1-2.1-1.2-3.5-4.7-3.7v-0.2
	c4.2-0.4,5.6-2,5.6-4.1c0-2.1-1.8-4.2-6.8-4.2h-9.6v2.4h2.1v11.8h-2.1v2.4h9.1v-2.4h-2.2V322.6z M225.1,329.9h9.1v-2.4H232v-11.8
	h2.1v-2.4h-9.1v2.4h2.2v11.8h-2.2V329.9z M249.6,330h5.1v-14.4h2v-2.4h-6.6v2.4h2.1v9h-0.2l-6.5-11.5h-7.8v2.4h2v11.8h-2v2.4h6.6
	v-2.4h-2.1v-10h0.2L249.6,330z M267.9,330.3c2.7,0,4-1.2,4.7-2.8l1.1,2.6h2.6v-6.5h1.8v-2.4h-9.2v2.4h2.7v0.4c0,1.4-0.3,2.4-0.9,3.1
	c-0.5,0.5-1.1,0.7-1.9,0.7c-2.5,0-3.7-2.3-3.7-6.4c0-4.4,1.5-6.4,3.7-6.4c1.8,0,3,1.2,3.9,4.2h3.4v-6.5h-2.6l-0.6,2.1
	c-1-1.4-2.5-2.1-4.6-2.1c-4.3,0-8.3,3.6-8.3,8.8C259.9,326.9,263.3,330.3,267.9,330.3 M98.9,179h-5.3c-0.7,0-1.2,0.5-1.2,1.2V195
	l-17.2-16.3c-0.1-0.1-0.2-0.1-0.2-0.1h-1.1c-0.6,0-1.2,0.5-1.2,1.2l0,29.5c0,0.6,0.6,1.2,1.2,1.2h5.3c0.7,0,1.2-0.5,1.2-1.2v-15.6
	l17,16.8c0.2,0.2,0.6,0.3,0.8,0.3h0.7c0.6,0,1.2-0.5,1.2-1.1v-29.5C100.1,179.6,99.6,179,98.9,179 M124.2,193.1l-2.8,6.1h5.6
	L124.2,193.1z M139.4,208.8c0.2,0.4,0.2,0.8,0,1.1c-0.2,0.3-0.6,0.5-1,0.5h-4.9c-0.9,0-1.4-0.3-1.9-1.3l-1.5-3.3h-11.6l-1.5,3.3
	c-0.3,0.8-1,1.3-1.9,1.3h-4.9c-0.4,0-0.8-0.2-1-0.5c-0.2-0.3-0.2-0.7-0.1-1.1l13.9-29.5c0.2-0.4,0.6-0.7,1.1-0.7h0.4
	c0.4,0,0.9,0.3,1.1,0.7L139.4,208.8z M166,179h-21.4c-0.7,0-1.2,0.5-1.2,1.2v4.8c0,0.6,0.5,1.2,1.2,1.2h6.9v23.1
	c0,0.6,0.6,1.2,1.2,1.2h5.3c0.6,0,1.2-0.6,1.2-1.2v-23.1h6.9c0.7,0,1.2-0.5,1.2-1.2v-4.8C167.2,179.6,166.7,179,166,179 M184.2,179
	h-5.3c-0.6,0-1.2,0.5-1.2,1.2v29c0,0.6,0.6,1.2,1.2,1.2h5.3c0.7,0,1.2-0.6,1.2-1.2v-29C185.4,179.6,184.9,179,184.2,179
	 M211.7,186.3c-4.5,0-8.1,3.8-8.1,8.5c0,4.6,3.7,8.4,8.1,8.4c4.5,0,8.2-3.8,8.2-8.4C219.9,190.1,216.2,186.3,211.7,186.3
	 M211.7,178.6c8.7,0,15.7,7.3,15.7,16.2c0,9-6.9,16.1-15.7,16.1c-8.8,0-15.7-7.1-15.7-16.1C196,185.8,203,178.6,211.7,178.6
	 M263.1,179h-5.1c-0.6,0-1.2,0.5-1.2,1.2V195l-16.5-16.3c-0.1-0.1-0.1-0.1-0.2-0.1H239c-0.6,0-1.2,0.5-1.2,1.2l0,29.5
	c0,0.6,0.6,1.2,1.2,1.2h5.1c0.6,0,1.2-0.5,1.2-1.2v-15.5l16.3,16.8c0.1,0.2,0.6,0.3,0.8,0.3h0.7c0.6,0,1.2-0.5,1.2-1.1v-29.5
	C264.2,179.6,263.7,179,263.1,179 M287.8,193.1l-2.7,6.1h5.4L287.8,193.1z M302.5,208.7c0.2,0.4,0.1,0.8-0.1,1.1
	c-0.2,0.3-0.6,0.5-1,0.5h-4.8c-0.9,0-1.4-0.3-1.8-1.3l-1.5-3.3h-11.2l-1.5,3.3c-0.3,0.8-1,1.3-1.9,1.3h-4.7c-0.4,0-0.8-0.2-1-0.5
	c-0.2-0.3-0.2-0.7-0.1-1.1l13.4-29.5c0.2-0.4,0.6-0.7,1-0.7h0.4c0.4,0,0.8,0.3,1,0.7L302.5,208.7z M327.9,203.2h-10.2v-23
	c0-0.6-0.5-1.2-1.2-1.2h-5.3c-0.7,0-1.2,0.5-1.2,1.2v29c0,0.6,0.5,1.2,1.2,1.2h16.7c0.7,0,1.2-0.5,1.2-1.2v-4.8
	C329.1,203.8,328.6,203.2,327.9,203.2 M134.4,112.5l-14.8-5.2c-2.9-1-4-3-4-5.7c0-6.1,6.6-7.8,12.2-7.8c6,0,14.2,2.1,14.2,8.8
	c0,3.7-1.5,6-4.5,7.8L134.4,112.5z M130.9,133.2c8.7,3.1,10.1,5.4,10.2,8.9c0,5.7-7.3,8.3-13.7,8.3c-8.7,0-17.9-2.8-18-11.3
	c-0.1-4,2.9-9.3,7.6-11L130.9,133.2z M156.4,102.8c0-14.6-16.9-18.2-28.5-18.2c-15.7,0-31.4,4.6-31.4,23.1c0,7.1,5.3,12.5,11.3,15.5
	c-8.8,3.2-14,8.3-14,17.9c0,17.1,19.5,20.1,32.5,20.1c17.1,0,34-5.4,34-23.8c0-11.2-6.5-17.1-16.3-20.9
	C150.7,114.2,156.4,110.6,156.4,102.8 M261.4,137.9c0-9.3,3.7-13.6,9.9-13.6c6.1,0,9.9,4.3,9.9,13.6c0,8.6-3.7,13.1-9.8,13.1
	C265.2,151,261.4,146.4,261.4,137.9 M260.1,113.5c0-11.1,5.1-20,17.5-20c2.2,0,4.1,0.5,6.1,1.8c-3.3,1.7-4.7,3.4-4.7,7.1
	c0,4.4,4.2,7.9,9.4,7.9c7.6,0,11.9-3,11.9-10.5c0-10.5-15.2-15.3-24.7-15.3c-26.3,0-37.7,16.7-37.7,41.4c0,21.7,11.1,35,34.8,35
	c15.4,0,30.6-7.2,30.6-24.3c0-14.1-11.3-22-24.8-22c-7.9,0-11.9,0.9-18.4,5.4V113.5z M230.7,134.6c-0.8-2.9-3.1-3.5-5.8-3.4
	c-3.1,0-6.3,2.3-5.4,5.8c1,3.8,0.2,6.8-4.4,6.8c-3.7,0-6.8-1.3-9.8-1.9c-3-0.6-5.2-1.3-9.2-1.3c-6.1,0-11.1,1.2-16,4.7
	c10.9-17.1,48.5-7.8,48.5-36.7c0-17.2-15.5-23.8-30.5-23.8c-14.8,0-32.1,6.6-32.1,23.9c0,7.4,5,12.5,12.3,12.5
	c9.6,0,11.4-5.8,11.4-9.6c0-4.1-3.4-8.6-8-8.6c-1.4,0-3.2,0.3-4.7,1c1.6-6.4,8.8-9.6,14.7-9.6c7.8,0,14.7,4.3,14.7,12.9
	c0,19.7-43.3,18.1-41,46.9c0.5,5.9,5.6,7.1,7.9,7.1c2.1,0,4-0.7,5.4-1.8c0.3-0.2,0.5-0.4,0.8-0.6c1.2-1.1,4.1-4.2,8.1-4.2
	c5.4,0,13.1,6.4,24,6.4c14,0,19.6-7.2,19.5-21C231.2,137.9,231.2,136.4,230.7,134.6"/>
</svg>
