<?xml version="1.0" encoding="utf-8"?>
<!-- Generator: Adobe Illustrator 18.0.0, SVG Export Plug-In . SVG Version: 6.00 Build 0)  -->
<!DOCTYPE svg PUBLIC "-//W3C//DTD SVG 1.1//EN" "http://www.w3.org/Graphics/SVG/1.1/DTD/svg11.dtd">
<svg version="1.1" id="Layer_1" xmlns="http://www.w3.org/2000/svg" xmlns:xlink="http://www.w3.org/1999/xlink" x="0px" y="0px"
	 width="612px" height="598px" viewBox="0 0 612 598" enable-background="new 0 0 612 598" xml:space="preserve">
<g>
	<path fill="#FFFFFF" d="M26.4,292c0-90.2,0-180.4,0-270.6c90.2,0,180.4,0,270.6,0c-0.6,0.1-1.2,0.3-1.8,0.4
		c-9.6,0.9-19.3,1.4-28.8,2.9c-10.8,1.7-21.6,4.1-32.2,6.8c-16,4-31.3,9.8-46.2,16.9c-15.5,7.4-30.3,16-44.3,26.1
		c-10.1,7.3-19.8,15.2-28.8,23.8c-6.2,5.9-12.1,12-17.7,18.4c-6.5,7.5-12.9,15.2-18.8,23.2c-16.4,22.6-28.8,47.3-37.6,73.8
		c-8.2,24.8-12.9,50.2-14,76.3C26.7,290.6,26.5,291.3,26.4,292z"/>
	<path fill="#FFFFFF" d="M297,583.2c-90.2,0-180.4,0-270.6,0c0-90.2,0-180.4,0-270.6c0.3,1.8,0.6,3.6,0.7,5.4c0.7,6.9,1,13.9,2,20.8
		c1.4,9.6,3.1,19.1,5.2,28.5c3.3,14.5,7.7,28.6,13.8,42.2c5.3,11.6,10.5,23.2,16.8,34.3c13,22.9,29.4,43.2,48.4,61.4
		c30.4,29,65.5,50.2,105.3,63.6c24.7,8.3,50.2,13,76.3,14C295.6,582.8,296.3,583.1,297,583.2z"/>
	<path fill="#FFFFFF" d="M317.6,21.4c90.2,0,180.4,0,270.6,0c0,90.2,0,180.4,0,270.6c-0.1-0.5-0.3-1.1-0.4-1.6
		c-0.4-5.5-0.7-11-1.2-16.6c-1.4-14.8-4-29.3-7.9-43.6C565,179.3,539.1,135.6,501,99.2c-30.1-28.8-65-49.9-104.5-63.2
		c-25.1-8.5-50.9-13.2-77.4-14.3C318.7,21.7,318.1,21.5,317.6,21.4z"/>
	<path fill="#FFFFFF" d="M588.2,312.6c0,90.2,0,180.4,0,270.6c-90.2,0-180.4,0-270.6,0c0.5-0.1,1.1-0.3,1.6-0.4
		c4.1-0.3,8.3-0.5,12.4-0.8c14.5-1.1,28.9-3.5,43-7.1c52.7-13.3,98-39.5,135.6-78.8c29.1-30.3,50.3-65.5,63.6-105.3
		c8.3-24.7,12.9-50.2,14-76.2C587.8,313.9,588.1,313.3,588.2,312.6z"/>
	<path fill="#BA3343" d="M588.2,312.6c-0.1,0.7-0.3,1.3-0.4,2c-1.1,26.1-5.7,51.5-14,76.2c-13.3,39.8-34.5,75-63.6,105.3
		c-37.6,39.2-82.9,65.5-135.6,78.8c-14.1,3.6-28.5,5.9-43,7.1c-4.1,0.3-8.3,0.5-12.4,0.8c-0.5,0-1.1,0.2-1.6,0.4
		c-6.9,0-13.8,0-20.6,0c-0.7-0.1-1.3-0.3-2-0.4c-26.1-1.1-51.5-5.7-76.3-14c-39.9-13.3-74.9-34.6-105.3-63.6
		c-19.1-18.2-35.5-38.5-48.4-61.4c-6.3-11.1-11.5-22.7-16.8-34.3C42,396,37.6,381.8,34.3,367.3c-2.1-9.4-3.8-19-5.2-28.5
		c-1-6.9-1.3-13.9-2-20.8c-0.2-1.8-0.5-3.6-0.7-5.4c0-6.9,0-13.8,0-20.6c0.1-0.7,0.3-1.3,0.4-2c1.1-26.1,5.8-51.5,14-76.3
		c8.8-26.5,21.2-51.2,37.6-73.8c5.8-8.1,12.2-15.7,18.8-23.2c5.6-6.4,11.6-12.5,17.7-18.4c9-8.6,18.7-16.5,28.8-23.8
		c14-10.1,28.7-18.7,44.3-26.1c14.9-7.1,30.2-12.9,46.2-16.9c10.6-2.7,21.4-5,32.2-6.8c9.5-1.5,19.2-2,28.8-2.9
		c0.6-0.1,1.2-0.2,1.8-0.4c6.9,0,13.8,0,20.6,0c0.5,0.1,1.1,0.3,1.6,0.4c26.5,1,52.3,5.8,77.4,14.3c39.5,13.3,74.4,34.4,104.5,63.2
		c38,36.4,63.9,80.1,77.7,130.9c3.9,14.3,6.5,28.9,7.9,43.6c0.5,5.5,0.8,11,1.2,16.6c0,0.5,0.2,1.1,0.4,1.6
		C588.2,298.8,588.2,305.7,588.2,312.6z M34.7,302.2c0.2,149.9,121.2,271.4,270.2,272.6c151.6,1.2,273.9-121,274.9-270.5
		c1-151.4-121.1-273.4-270.3-274.5C157.6,28.6,34.9,151.6,34.7,302.2z"/>
	<path fill="#FFFFFF" d="M34.7,302.2C34.9,151.6,157.6,28.6,309.5,29.8c149.2,1.1,271.3,123.1,270.3,274.5
		c-1,149.4-123.3,271.7-274.9,270.5C155.9,573.6,34.9,452.1,34.7,302.2z M567.5,302.4C567.2,158.9,451.6,43.1,309.1,42.2
		c-144.6-1-261.7,115.8-262,259.5c-0.3,144.2,116.6,261,260.6,260.7C451.1,562.1,567.1,445.9,567.5,302.4z"/>
	<path fill="#BA3343" d="M567.5,302.4c-0.3,143.5-116.3,259.7-259.6,260c-144,0.3-260.9-116.5-260.6-260.7
		c0.3-143.8,117.3-260.5,262-259.5C451.6,43.1,567.2,158.9,567.5,302.4z M170.5,191c-1.3,0.6-2.6,1.1-3.8,1.7
		c-13,6-17.5,16.3-15.6,29.6c1.4,9.6,7.6,15.5,16.1,19.4c7,3.2,14.4,4.5,22,5.1c10.7,0.8,21.4,0.6,31.8-2.1
		c7.5-1.9,14.5-4.9,19.9-10.7c8.2-8.9,9.6-19.5,7-30.8c-2.1-9.2-8.5-15.1-16.6-19.3c-1.8-0.9-3.6-1.8-5.6-2.7
		c1.7-0.8,3.4-1.4,4.9-2.1c4.8-2.3,9-5.3,11.2-10.4c3.2-7.5,2-19.6-8.4-26.5c-2.4-1.6-5-3.1-7.8-4c-16.7-5.8-33.6-5.8-50.3-0.1
		c-11.6,3.9-18.5,12.1-20.4,24.4c-1.4,9.2,1,17,8.1,23.2C165.3,187.4,167.9,189.1,170.5,191z M279.5,221.7c2.4-3.5,5.6-6.3,9.3-8
		c5.3-2.4,10.7-4.6,16.3-6.5c7.9-2.7,15.9-4.9,23.7-7.7c5.5-2,10.4-5.1,14.2-9.7c6.7-8.1,7.8-17.5,6.2-27.4
		c-1.9-11.1-8.6-18.6-18.6-23.3c-6.6-3.2-13.7-4.6-21-5.1c-11.4-0.8-22.5,0.7-32.9,5.7c-12.9,6.2-20.2,16.3-19.5,31.1
		c0.3,7.3,3.8,12.7,10.6,15.7c3.7,1.6,7.6,1.6,11.5,1.2c7.4-0.7,12-4.9,13.1-12c1.2-7.6-5-15.8-12.8-14.9c-1.8,0.2-3.5,0.5-5.5,0.8
		c1-3.2,2.8-5.7,5.3-7.7c6.3-4.9,13.4-6.4,21.2-5.1c11.8,1.9,18.8,12.5,15.4,23.5c-1.6,5.5-5.4,9.3-10,12.4
		c-4.4,2.9-9.2,5.5-13.7,8.2c-7.2,4.2-14.6,8-21.4,12.8c-10.5,7.4-15.7,17.6-14.5,30.7c0.4,4.5,2.6,7.8,6.8,9.5
		c5.3,2.1,10.1,1,14.4-2.7c1.4-1.2,2.8-2.4,4.3-3.5c3.4-2.4,7.3-3.1,11.3-1.7c3.7,1.3,7.4,2.8,11,4.2c9.1,3.7,18.4,5.6,28.3,3.9
		c9.4-1.6,16.2-6.5,19.1-15.9c2.1-6.8,2.4-13.9,1.6-21c-0.5-4.2-2.6-6.3-6.3-6.8c-1.4-0.2-2.8-0.2-4.2,0c-5.1,0.6-7.7,4.3-6.6,9.3
		c0.2,0.9,0.3,1.8,0.4,2.6c0.1,4-1.9,6.3-5.9,6.3c-2.7,0-5.4-0.5-8.1-1c-5.7-1.1-11.4-2.8-17.2-3.4
		C296.1,215.4,287.4,216.8,279.5,221.7z M430.1,149.1c-0.1,0.2-0.1,0.5-0.2,0.7c-4,2.8-5,3.9-5.8,6.3c-2,6.6,1.4,13,8.3,15.1
		c5.4,1.7,10.7,1.1,15.8-1.2c2.6-1.1,4.6-3.1,5.6-5.7c2.6-6.6,2.2-12.8-2.6-18.4c-3.2-3.8-7.4-6.2-11.9-8c-11-4.5-22.4-5.1-33.9-3
		c-17.2,3.1-30,12.1-36.7,28.5c-6.7,16.5-7.6,33.7-3.2,50.9c3.5,13.8,11.9,23.7,25.4,28.6c15.1,5.4,30.5,5.6,45.6,0.1
		c13.2-4.8,21.7-14,23.1-28.5c1.2-12.7-3-23-13.9-30.2c-6.1-4-13-5.7-20.2-6.1c-9.8-0.5-19.2,0.7-27.5,6.5c-0.6,0.4-1.2,0.7-1.9,1.2
		c0-3.8-0.1-7.4,0-10.9c0.1-2.2,0.4-4.4,0.7-6.6c2.2-13.5,12-21.7,25.6-21C425,147.4,427.5,148.4,430.1,149.1z M324.7,272.4
		c-13.1,0-23.5,10.7-23.5,24c0,13.3,10.4,23.9,23.4,23.9c13-0.1,23.2-10.6,23.3-23.8C347.9,283.1,337.6,272.4,324.7,272.4z
		 M148.5,296.2c-0.7-0.6-1-0.9-1.3-1.2c-7.5-7.1-15-14.2-22.4-21.3c-1.3-1.3-2.8-1.9-4.2-1c-0.8,0.5-1.2,2.1-1.2,3.3
		c-0.1,4.3,0.1,8.6,0.1,13c0,9.2,0,18.3,0,27.5c0,2.8,0.4,3.2,3.2,3.2c1.8,0,3.6,0,5.3,0c2.6,0,3.1-0.5,3.1-3.1c0-6.3,0-12.6,0-18.9
		c0-0.6,0.1-1.2,0.1-2.1c0.6,0.5,1,0.8,1.3,1.2c4.8,4.7,9.6,9.5,14.4,14.3c2.8,2.8,5.5,5.6,8.5,8.3c0.8,0.7,2.3,1,3.4,0.9
		c1.4-0.2,1.4-1.6,1.4-2.8c0-13.8,0-27.6,0-41.4c0-2.4-0.4-2.8-2.8-2.8c-2,0-4.1,0-6.1,0c-2.4,0-2.8,0.4-2.8,2.8c0,6,0,12,0,18
		C148.5,294.4,148.5,295.1,148.5,296.2z M374.2,295.5c2.4,2.4,4.6,4.5,6.7,6.7c5.5,5.7,11,11.3,16.5,17c1,1,2.1,1.4,3.5,0.9
		c1.3-0.5,1.3-1.6,1.3-2.7c0-4.8,0-9.6,0-14.3c0-9.1,0-18.2,0-27.3c0-2.2-0.4-2.6-2.5-2.7c-2.2,0-4.3,0-6.5,0
		c-1.6,0-2.3,0.7-2.3,2.3c0,3.9,0,7.8,0,11.7c0,2.9,0,5.8,0,9c-0.6-0.5-1-0.8-1.3-1.1c-4.9-4.8-9.7-9.6-14.6-14.4
		c-2.5-2.5-5-5.1-7.7-7.4c-0.7-0.6-2.3-0.8-3.3-0.6c-0.5,0.1-1.1,1.5-1.1,2.3c0,14.1,0,28.3,0,42.4c0,1.6,0.8,2.3,2.4,2.3
		c1.9,0,3.8,0,5.7,0c2.8,0,3.2-0.4,3.2-3.2C374.2,309.5,374.2,302.7,374.2,295.5z M212.7,319.6c1,0,2,0,3.1,0c2.5,0,3.2-1.1,2.1-3.4
		c-6.6-14-13.2-27.9-19.8-41.9c-0.5-1.1-1.1-1.9-2.5-1.9c-1.4,0-2,0.9-2.5,2c-3.1,6.7-6.3,13.3-9.4,20c-3.4,7.2-6.8,14.5-10.2,21.7
		c-1.2,2.5-0.5,3.5,2.3,3.5c0.8,0,1.7,0,2.5,0c6.6,0,5.7,0.4,8.3-5.3c0.5-1.1,1.1-1.5,2.3-1.5c4.5,0.1,8.9,0.1,13.4,0
		c1.4,0,2.3,0.4,2.7,1.8C206,318.5,208.2,320.8,212.7,319.6z M453.3,319.6c0.6,0,1.3,0,1.9,0c3.8,0,4.3-0.8,2.7-4.3
		c-6.1-13.5-12.3-27.1-18.5-40.6c-0.5-1.2-0.9-2.3-2.6-2.3c-1.7,0-2.1,1.2-2.6,2.3c-4.6,10.2-9.3,20.4-13.9,30.6
		c-1.7,3.7-3.4,7.4-5,11.1c-0.9,2.1-0.2,3.2,2.1,3.2c0.8,0,1.7,0,2.5,0c6.5,0,5.7,0.6,8.2-5.3c0.5-1.1,1.1-1.5,2.3-1.5
		c4.1,0.1,8.3,0.1,12.4,0c1.7-0.1,2.7,0.5,3.1,2.1c0.9,3.9,3.3,5.5,7.3,4.8C453.2,319.6,453.2,319.6,453.3,319.6z M307.2,356.6
		c15.9,0,31.7,0,47.6,0c0.6,0,1.3,0,1.9,0c2.1-0.2,3.6-1.7,3.8-3.7c0.2-2.1-1.1-3.7-3.3-4.2c-0.7-0.1-1.4-0.2-2.1-0.2
		c-31.8,0-63.7,0-95.5,0c-0.8,0-1.7,0.1-2.4,0.3c-1.8,0.5-2.9,1.9-2.9,3.7c0,1.8,1.1,3.3,2.9,3.8c0.8,0.2,1.6,0.2,2.5,0.2
		C275.4,356.6,291.3,356.6,307.2,356.6z M235.4,283.9c0,1.2,0,2,0,2.8c0,9.9,0,19.9,0,29.8c0,2.4,0.6,3,3,3c1.8,0,3.6,0,5.3,0
		c3,0,3.4-0.4,3.4-3.4c0-9.9,0-19.9,0-29.8c0-0.8,0.1-1.6,0.1-2.5c3.2,0,6.1,0,9,0c2.1,0,2.7-0.7,2.8-2.8c0-1.8,0-3.7,0-5.5
		c0-1.7-0.7-2.6-2.5-2.6c-10.2,0-20.5,0-30.7,0c-1.6,0-2.4,0.7-2.4,2.3c0,1.8,0,3.6,0,5.3c0,2.7,0.5,3.2,3.2,3.3
		C229.6,283.9,232.4,283.9,235.4,283.9z M481.1,308.7c-0.1-0.9-0.1-1.8-0.1-2.6c0-10.1,0-20.1,0-30.2c0-2.5-0.4-2.9-2.9-2.9
		c-2.1,0-4.2,0-6.3,0c-1.8-0.1-2.5,0.8-2.5,2.5c0,2.6,0,5.2,0,7.8c0,11.1,0,22.2,0,33.2c0,2.2,0.6,2.9,2.4,2.9c8,0,15.9,0,23.9,0
		c1.6,0,2.3-0.8,2.3-2.3c0-1.8,0-3.7,0-5.5c0-2.6-0.4-3-3-3C490.3,308.7,485.8,308.7,481.1,308.7z M228.9,390.8
		c0.9-0.1,1.6-0.2,2.4-0.3c0-0.5,0.1-0.9,0.1-1.2c0.1-2.5,0.1-2.5-2.5-2.5c-2.4,0-4.8,0-7.3,0c-3.5,0-3.5,0-3.2,3.5
		c0,0.1,0.1,0.2,0.3,0.5c2.4-0.8,2.6,1.1,2.9,2.7c0.1,0.7-0.1,1.5-0.4,2.2c-1.1,3-2.2,6-3.4,9c-0.1,0-0.3-0.1-0.4-0.1
		c-1.2-4.5-2.4-9-3.6-13.6c0.9-0.1,1.6-0.2,2.3-0.2c0-1.3,0-2.4,0-3.6c-4.5,0-8.9,0-13.3,0c0,1.3,0,2.5,0,3.9
		c2.8-0.8,3.3,0.9,3.8,2.9c1.2,4.5,2.6,9,3.9,13.5c1.4,4.7,1.4,4.7,6.4,4.8c1.5,0,2.3-0.4,2.7-1.9c1.1-3.4,2.5-6.8,3.9-10.6
		c0.9,2.8,1.6,5.2,2.3,7.6c1.5,4.9,1.5,4.8,6.7,4.9c1.5,0,2.1-0.5,2.5-1.9c1.5-5.3,3.1-10.5,4.7-15.7c1-3.2,1-3.2,4-4
		c0-0.4,0-0.8,0.1-1.3c0.4-2-0.5-2.6-2.4-2.4c-1.8,0.2-3.7,0-5.5,0c-2.4,0-2.5,0.1-2.4,2.4c0,0.4,0.1,0.9,0.2,1.4
		c0.9,0.1,1.8,0.2,2.9,0.2c-1.2,4.6-2.4,9-3.6,13.5c-0.1,0-0.3,0-0.4,0C231.4,399.8,230.2,395.4,228.9,390.8z M286,296.4
		c0-6.9,0-13.9,0-20.8c0-1.8-0.7-2.6-2.5-2.5c-2.2,0.1-4.5,0.1-6.7,0c-1.8-0.1-2.6,0.7-2.6,2.5c0,13.9,0,27.7,0,41.6
		c0,1.8,0.9,2.5,2.6,2.5c2-0.1,4.1,0,6.1,0c2.5,0,3-0.5,3-3C286,309.9,286,303.1,286,296.4z M335.4,432.8c0,5.8,0,11.3,0,16.9
		c-3.2,0.4-3.4,0.8-2.6,4c4.4,0,8.8,0,13.2,0c0.6-3.2,0.6-3.2-3-4.1c0-1.8-0.1-3.7,0-5.6c0-0.4,0.6-1,1-1c2.5-0.1,4.9,0,7.4,0
		c0,2.5,0,4.7,0,6.9c-3.5,0.5-3.5,0.5-2.8,4c4.4,0,8.8,0,13.2,0c0-1.3,0-2.5,0-3.6c-1-0.1-1.9-0.2-2.8-0.3c0-5.7,0-11.3,0-16.9
		c1-0.1,1.9-0.1,2.8-0.2c0-1.3,0-2.5,0-3.7c-4.5,0-8.9,0-13.4,0c0,1.3,0,2.5,0,3.7c1,0.1,2,0.1,2.9,0.2c0,2.1,0,4,0,6.1
		c-2.5,0-5,0-7.4,0c-0.3,0-0.9-0.5-1-0.9c-0.1-1.7,0-3.5,0-5.3c0.8,0,1.2,0,1.7,0c0.5,0,1-0.1,1.5-0.2c0-0.5,0.1-0.9,0.1-1.2
		c0.1-2.5,0.1-2.5-2.4-2.6c-3.1,0-6.1,0.1-9.2,0c-1.7-0.1-2.5,0.5-2.2,2.2c0.1,0.5,0.1,1.1,0.2,1.7
		C333.7,432.7,334.5,432.7,335.4,432.8z M315.6,474.9c0,5.5,0,11.1,0,16.8c-0.5,0-1,0.1-1.4,0.1c-1.8-0.2-1.5,1.1-1.5,2.1
		c-0.1,1.2,0.2,1.9,1.7,1.8c3.5-0.1,7,0,10.5-0.1c0.5,0,1.4-0.3,1.5-0.6c0.9-1.8-0.1-3.2-2.1-3.3c-0.3,0-0.6-0.1-0.9-0.1
		c0-2.2,0-4.3,0-6.4c4.6-0.4,5.2,0.2,5.3,4.5c0,0.2,0,0.4,0,0.6c0.1,4.1,2.1,6,6.3,5.9c3.7,0,6-2.4,6-6.4c-0.8-0.1-1.8-0.5-2.4-0.1
		c-0.6,0.4-0.9,1.4-1.3,2.2c-0.3,0.1-0.6,0.1-0.9,0.2c0-4.4-0.6-8.3-6-8.7c1.3-0.4,2.3-0.6,3.2-1c2.4-0.8,3.8-2.6,3.9-5.1
		c0.1-2.5-1.2-4.3-3.5-5.2c-1.7-0.7-3.7-1.2-5.5-1.2c-4.7-0.2-9.4-0.1-14.1-0.1c-0.5,0-1,0.1-1.4,0.2
		C312.3,474.4,312.3,474.4,315.6,474.9z M248.4,390.6c2.9,0.3,2.9,0.3,2.9,3.2c0,3.6,0,7.1,0,10.7c0,3.1,0,3.1-2.8,3.7
		c0,1.1,0,2.2,0,3.4c4.5,0,9,0,13.4,0c0-1.3,0-2.4,0-3.5c-1.1-0.1-2-0.2-2.9-0.3c0-2.2,0-4.3,0-6.3c4.3-0.7,5.1-0.1,5.1,4
		c0,0.4,0,0.8,0,1.1c0.3,2,0.7,3.9,2.6,5c4.5,2.6,9.5-0.2,9.8-5.5c-0.7-0.2-1.5-0.4-2.3-0.7c-0.2,0.3-0.3,0.6-0.5,0.7
		c-0.4,0.5-0.9,1-1.3,1.6c-0.2-0.6-0.6-1.2-0.7-1.8c0-3.5-1.6-5.7-5.7-6.4c1.4-0.5,2.3-0.7,3.2-1.1c2.3-0.9,3.7-2.5,3.7-5.1
		c0-2.4-1.2-4.2-3.3-5.1c-1.3-0.6-2.8-1.1-4.2-1.2c-5.3-0.2-10.7-0.2-16-0.3c-0.3,0-0.6,0.1-1,0.2
		C248.4,388.2,248.4,389.3,248.4,390.6z M384.2,487.5c-0.6-1-1-1.6-1.3-2.2c-2.5-4.4-5-8.9-7.5-13.3c-0.3-0.5-0.8-1.2-1.3-1.2
		c-3.7-0.1-7.3-0.1-11-0.1c0,1.4,0,2.6,0,3.8c0.9,0.1,1.7,0.2,2.6,0.3c0,5.7,0,11.2,0,16.8c-1,0.1-1.7,0.2-2.5,0.3
		c0,1.3,0,2.5,0,3.6c3.3,0,6.5,0,9.6,0c0-1.3,0-2.4,0-3.6c-1-0.1-1.8-0.2-2.8-0.3c0-4.6,0-9.1,0-14.1c2.7,4.8,5.5,9,7.6,13.6
		c1.8,4.2,4.5,5.6,8.8,5c1.6-0.2,2-0.6,2-2.2c-0.1-4.8,0-9.6,0-14.3c0-1.6,0-3.1,0-4.8c1-0.1,1.8-0.2,2.7-0.2c0-1.3,0-2.5,0-3.7
		c-3.3,0-6.5,0-9.7,0c-0.7,3.3-0.7,3.4,2.8,4.1C384.2,478.9,384.2,482.9,384.2,487.5z M390.1,432.8c0,5.7,0,11.2,0,16.9
		c-0.7,0.1-1.5-0.1-1.9,0.2c-0.5,0.3-0.9,1.1-0.9,1.7c0,0.7,0.4,2,0.7,2c3.1,0.1,6.2,0.1,9.2,0.1c0.3-3.3,0.3-3.3-2.9-4.2
		c0-4.5,0-9,0-14c3.3,5.9,6.5,11.4,9.6,16.9c0.3,0.6,0.9,1.5,1.5,1.5c2.3,0.2,4.7,0.1,7.2,0.1c0-7.2,0-14.2,0-21.2
		c1.1-0.1,1.9-0.2,2.8-0.2c0-1.3,0-2.5,0-3.8c-2.3,0-4.6,0-6.8,0c-3.4,0-3.4,0-3.1,3.5c0,0.1,0.1,0.2,0.2,0.4
		c0.8,0.1,1.7,0.1,2.7,0.2c0,4.1,0,8.1,0,12.5c-0.5-0.8-0.8-1.3-1-1.7c-2.5-4.5-5.1-8.9-7.6-13.4c-0.6-1-1.2-1.4-2.4-1.4
		c-2.5,0.1-5.1,0-7.6,0c-2.7,0-2.7,0-2.6,2.8c0,0.4,0.2,0.7,0.2,1.1C388.3,432.7,389.1,432.7,390.1,432.8z M375.4,412.1
		c0-7.2,0-14.1,0-21.1c0.7-0.1,1.3-0.2,1.8-0.2c1.3,0,1.1-1,1.1-1.8c-0.1-0.8,0.5-2.2-1.1-2.2c-2.9-0.1-5.8,0-8.8,0
		c0,1.4,0,2.6,0,3.9c1,0.1,1.9,0.2,2.9,0.3c0,4.2,0,8.2,0,12.7c-0.4-0.6-0.6-0.9-0.8-1.2c-2.7-4.7-5.4-9.4-8-14.1
		c-0.6-1.2-1.4-1.6-2.7-1.6c-2.3,0.1-4.6,0-6.9,0c-3.2,0-3.3,0-3,3.2c0,0.2,0.1,0.5,0.2,0.6c2.7,0.3,2.7,0.3,2.7,3.1
		c0,3.8,0,7.6,0,11.5c0,2.7,0,2.7-2.5,2.9c-0.1,0-0.2,0.1-0.3,0.2c0,1.1,0,2.2,0,3.3c3.3,0,6.5,0,9.8,0c0-1.3,0-2.4,0-3.5
		c-1-0.1-1.9-0.2-2.8-0.3c0-4.6,0-9.1,0-14c3.3,5.9,6.4,11.4,9.6,16.8c0.3,0.6,1,1.3,1.5,1.4C370.5,412.1,372.8,412.1,375.4,412.1z
		 M227.6,453.7c5.5,0,10.9,0.1,16.3-0.1c1.6-0.1,3.4-0.7,4.9-1.4c2.4-1.1,3.3-3.3,3.1-5.8c-0.2-2.4-1.6-3.9-3.8-4.7
		c-0.9-0.3-1.8-0.6-2.8-0.9c1-0.4,1.9-0.6,2.7-1c2-1,3.2-2.5,3.2-4.8c0-2.3-1.1-3.9-3.1-4.8c-1.1-0.5-2.3-0.9-3.5-1
		c-4.8-0.2-9.7-0.3-14.5-0.4c-2.9,0-2.9,0-2.7,2.8c0,0.4,0.1,0.7,0.2,1.1c1,0.1,1.8,0.1,2.7,0.2c0,5.7,0,11.3,0,16.8
		C227,450.1,227,450.1,227.6,453.7z M400.3,402.6c0.5,3.1-0.6,5.1-2.9,5.7c-2.2,0.6-4.3-0.8-5.2-3.4c-0.1-0.2-0.2-0.4-0.2-0.5
		c0-3.4-0.3-6.8,0.1-10.2c0.3-2.6,2.2-4.1,4.3-4.3c2-0.2,4,1.1,4.8,3.6c0.7,2.4,2.1,2.9,4.2,2.6c0.2,0,0.5,0,0.8,0
		c1.1,0.1,1.5-0.4,1.5-1.5c0-1.8,0-3.7,0-5.5c0-3,0-2.9-3-2.9c-1.9,0-1.3,1.7-2.2,2.6c-2.6-2.5-5.8-3.1-9.2-2.3
		c-7.9,1.9-11.9,10.5-8.7,18.5c1.6,4,4.5,6.4,8.7,7.2c3.7,0.7,7,0.1,9.2-3.4c1.9,3.7,2,3.7,5.7,2.9c0-3,0-6.1,0-9.1
		c1-0.1,1.7-0.2,2.5-0.3c0-0.5,0.1-0.9,0.1-1.3c0.1-2.6,0.1-2.6-2.4-2.6c-1.9,0-3.8,0-5.7,0c-1.9,0-3.8,0-5.6,0c0,1.5,0,2.7,0,3.9
		C398,402.5,399.2,402.5,400.3,402.6z M414.5,472.8c-5-4.5-11.6-2.6-14.8,0.5c-4,3.8-5,8.6-3.8,13.8c1.5,6.4,7.2,10.2,13.6,8.9
		c1.8-0.4,3.4-1.8,5.1-2.8c0.1,0.3,0.5,0.9,0.6,1.5c0.7,2.1,2.4,1.2,3.7,1.2c0.4,0,0.9-1.3,1-2c0.1-2.4,0-4.8,0-7.1
		c2.7-0.6,2.9-0.9,2.2-4.3c-4.1,0-8.3,0-12.5,0c-0.3,0-0.9,0.3-1,0.6c-0.9,1.9,0.1,3.3,2.1,3.4c0.6,0,1.2,0.1,1.9,0.1
		c-0.1,0.9-0.2,1.5-0.3,2.1c-0.3,1.8-1.1,3.1-3,3.4c-2,0.4-3.9-0.5-4.7-2.4c-1.9-4.4-2-9,0.1-13.3c1.6-3.5,5.8-3.5,7.8-0.2
		c0.5,0.9,0.8,1.9,1.3,2.8c0.3,0.5,0.8,1,1.2,1.1c1.4,0.1,2.8,0.1,4.2,0.1c0-3.4,0-6.5,0-9.7C415.6,470,415.6,470,414.5,472.8z
		 M439.6,430.7c-5.3-3.4-10.4-3.2-14.6,0.5c-3.5,3.1-4.7,7-4.4,11.5c0.4,4.9,2.4,8.7,7.1,10.7c4.4,1.8,8.6,1.8,11.8-2.6
		c0.3,0.8,0.6,1.3,0.8,1.9c0.6,2.1,2.4,1.3,3.7,1.3c1.6,0,0.9-1.4,1-2.2c0.1-2.4,0-4.8,0-7.2c1-0.1,1.7-0.2,2.4-0.2
		c0-1.3,0-2.5,0-3.9c-2.4,0-4.6,0-6.8,0c-2.3,0-4.5,0-6.8,0c0,1.4-0.4,3.1,0.1,3.4c1,0.7,2.4,0.6,3.7,0.8c0.2,2.8-0.7,4.7-2.5,5.3
		c-1.9,0.7-4-0.1-5.1-1.9c-2.1-3.2-2-11.2,0.1-14.3c1.8-2.6,5.2-2.7,7.1-0.2c0.7,1,1.1,2.3,1.7,3.4c0.2,0.4,0.6,1,0.9,1
		c1.5,0.1,3,0,4.5,0c0-3.4,0-6.5,0-9.6C440.9,427.9,440.7,427.9,439.6,430.7z M307.8,483.2c0-7.9-5.2-13.1-13-13.1
		c-7.7,0-13.1,5.5-13.1,13.2c0,7.8,5.1,13.1,13,13.2C302.3,496.5,307.8,491,307.8,483.2z M310.4,451.7c0.4,0.3,0.7,0.4,0.9,0.5
		c0.3,0.2,0.5,0.4,0.8,0.6c3.9,2.2,7.9,2.2,11.8-0.1c2.9-1.8,3.7-4.6,3.4-7.8c-0.3-2.8-1.9-4.5-4.4-5.5c-1.1-0.5-2.3-0.8-3.4-1.1
		c-1.8-0.5-3.6-0.8-5.3-1.6c-0.8-0.3-1.7-1.5-1.6-2.1c0.1-0.8,1.1-1.9,1.9-2.2c2.6-1.1,5.2,0.1,6.7,2.8c1.4,2.5,2,2.8,4.8,1.9
		c0-2.9,0-5.8,0-8.6c-2-0.1-4.1-0.9-4.5,2c-3.1-2.1-4.6-2.5-7.8-2.1c-3.9,0.4-7.2,3.4-7.5,7c-0.5,4.4,1.2,7,5.6,8.5
		c2.2,0.7,4.5,1.2,6.8,1.9c1.3,0.4,2.7,0.9,2.4,2.6c-0.3,1.6-1.6,2.1-3.1,2.3c-3.8,0.3-5.9-1.1-7.5-4.5c-0.2-0.5-0.7-1.1-1.2-1.2
		c-1-0.2-2.1-0.1-3.3-0.1c0,3,0,5.7,0.1,8.4c0,0.4,0.6,1,1.1,1.1C308.9,454.8,310.3,454.2,310.4,451.7z M198.1,432.8
		c0,0.8,0.1,1.4,0.1,2.1c0,3.5,0,7,0,10.5c0.1,4.4,2.2,7.3,6.5,8.3c2.3,0.5,4.8,0.7,7.1,0.4c5-0.6,7.9-4.1,8-9.1
		c0.1-2.7,0-5.5,0-8.2c0-1.3,0-2.6,0-4c1.1-0.1,1.8-0.2,2.6-0.3c0-1.3,0-2.5,0-3.8c-2.6,0-5,0-7.4,0c-2.7,0-2.7,0-2.6,2.6
		c0,0.4,0.1,0.8,0.2,1.3c1,0.1,1.8,0.2,2.7,0.2c0,4.4,0.1,8.6,0,12.8c-0.1,2.7-1.9,4.1-4.5,4.2c-3,0.1-5-1-5.1-3.4
		c-0.2-4.5-0.1-9-0.1-13.6c1-0.1,2-0.1,3-0.2c0-1.3,0-2.5,0-3.8c-4.5,0-9,0-13.5,0c0,1.3,0,2.5,0,3.7
		C196.2,432.7,197.1,432.7,198.1,432.8z M179.7,453.6c0-1.2,0.4-2.5-0.1-3.2c-0.4-0.6-1.8-0.6-2.8-0.9c0-1.6,0-3.3,0-5
		c1.5,0,2.8,0.1,4.2,0c1.3-0.1,2.7-0.4,3.9-0.7c2.6-0.8,4.5-2.3,5.2-5c1.2-4.9-1.5-9.1-6.9-9.5c-5.5-0.5-11-0.3-16.6-0.4
		c-0.1,0-0.2,0.1-0.3,0.2c0,1.2,0,2.3,0,3.6c1,0.1,2,0.1,2.8,0.2c0,5.7,0,11.2,0,16.8c-1,0.1-1.9,0.2-2.9,0.3c0,1.3,0,2.4,0,3.6
		C170.8,453.6,175.2,453.6,179.7,453.6z M240.7,474.8c0,4.5,0.2,8.9-0.1,13.3c-0.1,2.4-2.1,3.7-4.8,3.7c-2.8,0-4.6-1.1-4.7-3.6
		c-0.3-4.4-0.1-8.9-0.1-13.4c0.8,0,1.7,0.2,2.2-0.1c0.5-0.3,1-1.1,1-1.8c0.1-0.7,0.6-2-0.9-2.1c-4.2-0.1-8.5,0-12.8,0
		c0,1.4,0,2.6,0,3.8c1,0.1,1.9,0.2,2.9,0.3c0,4.3,0,8.4,0,12.6c0,4.2,2.3,7.2,6.3,8.3c1.5,0.4,3.1,0.7,4.7,0.7
		c6.9,0,10.6-3.8,10.6-10c0-3.3,0-6.6,0-9.9c0-0.5,0.1-1.1,0.1-1.6c3.1-0.3,3.4-0.7,2.5-4c-3.2,0-6.4,0-9.6,0c0,1.3,0,2.5,0,3.7
		C239,474.7,239.8,474.7,240.7,474.8z M268.2,491.7c0-5.8,0-11.5,0-17.2c1.9-0.6,3.1,0.2,3.7,1.9c0.5,1.3,0.7,2.7,1.1,4.1
		c0.5,1.8,1.9,1.1,3,1c0.4,0,1.1-1,1.1-1.5c0.1-2.4,0-4.8,0.1-7.3c0.1-1.5-0.4-2-1.9-2c-7.1,0.1-14.3,0-21.4,0
		c-0.6,0-1.1,0.1-1.9,0.1c0,3.3,0,6.4,0,9.6c0,0.3,0.3,0.7,0.5,0.9c1.4,0.8,3.3,0,3.6-1.6c0.3-1.2,0.5-2.4,0.9-3.5
		c0.6-1.6,1.7-2.3,3.5-1.8c0,5.8,0,11.5,0,17.3c-1.2,0.1-2.2,0.1-3.2,0.2c0,1.3,0,2.5,0,3.7c4.9,0,9.6,0,14.4,0c0-1.3,0-2.5,0-3.7
		C270.5,491.8,269.4,491.8,268.2,491.7z M216.4,470.7c-8.2,0-16.2,0-24.1,0.1c-0.4,0-1.1,0.9-1.1,1.5c-0.1,2.5-0.1,5-0.1,7.4
		c0,0.9-0.1,1.9,1.3,1.8c1.2-0.1,2.6,0.6,2.9-1.4c0.2-1.3,0.6-2.6,1-3.9c0.6-1.6,1.8-2.2,3.5-1.8c0,5.8,0,11.5,0,17.4
		c-0.9,0-1.8-0.2-2.4,0.1c-0.5,0.2-1,1-1,1.6c0,0.8-0.7,2.2,0.9,2.3c4.5,0.1,9,0,13.6,0c0-1.4,0-2.5,0-3.8c-1.2-0.1-2.2-0.2-3.3-0.2
		c0-5.8,0-11.5,0-17.2c2-0.5,3.1,0.4,3.6,2c0.4,1.3,0.7,2.7,1.1,4c0.5,1.7,1.9,0.8,2.9,0.9c0.3,0,1.1-0.7,1.1-1.1
		C216.4,477.2,216.4,474.1,216.4,470.7z M305,411.6c5,0,9.8,0,14.5,0c0-1.3,0-2.4,0-3.5c-1.2-0.1-2.3-0.2-3.3-0.3
		c0-5.9,0-11.6,0-17.5c4.9,0.2,3.6,4.6,5.1,7.1c1.2,0,2.3,0,3.6,0c0-3.3,0-6.4-0.1-9.5c0-0.4-0.8-1.1-1.3-1.1
		c-2.1-0.1-4.2-0.1-6.3-0.1c-5.2,0-10.4,0-15.7,0c-0.6,0-1.6,0.6-1.7,0.9c-0.1,3.2-0.1,6.4-0.1,9.6c3.6,0.5,3.6,0.5,4.4-2.7
		c0.2-0.7,0.4-1.5,0.6-2.2c0.6-1.7,1.9-2.4,3.8-2c0,5.8,0,11.5,0,17.4c-1.2,0.1-2.4,0.2-3.6,0.3C305,409.3,305,410.4,305,411.6z
		 M260.1,432.8c0,5.8,0,11.3,0,16.9c-3.2,0.4-3.5,0.8-2.5,3.9c7.5,0,14.9,0,22.4,0c0-3.6,0-7.1,0-10.5c-3.5-0.5-3.5-0.5-4.4,2.5
		c-1.2,4.2-1.8,4.6-6.2,4.5c-1.4,0-1.7-0.5-1.7-1.8c0.1-4,0-8,0-12c0-1.1,0-2.3,0-3.4c1.3-0.1,2.3-0.2,3.3-0.2c0-1.3,0-2.5,0-3.6
		c-0.3-0.1-0.4-0.2-0.5-0.2c-3.5,0-7,0-10.5-0.1c-2.9,0-2.9,0-2.7,2.8c0,0.4,0.2,0.7,0.3,1.1C258.4,432.7,259.2,432.7,260.1,432.8z
		 M330.7,408.2c-0.1,0.3-0.1,0.7-0.2,1.1c-0.1,2.5-0.1,2.5,2.4,2.5c3.2,0,6.5,0,9.7,0c1.3,0,1.7-0.4,1.6-1.7c-0.1-1,0.3-2.4-1.5-2.2
		c-1.5,0.2-1.8-0.6-1.8-1.9c0.1-4.5,0.1-8.9,0-13.4c0-1.3,0.2-2.1,1.8-1.9c1.8,0.2,1.4-1.1,1.5-2.1c0.1-1.2-0.2-1.9-1.7-1.9
		c-3.2,0.1-6.4,0-9.6,0c-2.7,0-2.7,0-2.6,2.8c0,0.4,0.1,0.7,0.2,1.1c0.9,0.1,1.8,0.2,2.9,0.3c0,4.6,0,9.1,0,13.6
		C333.7,407.7,333.7,407.7,330.7,408.2z M381.4,428.7c-3.6,0-7.1,0-10.5,0c-3.3,0-3.3,0-3,3.4c0,0.2,0.2,0.3,0.3,0.5
		c0.9,0,1.8,0.1,2.7,0.2c0,5.7,0,11.2,0,16.8c-3.4,0.6-3.4,0.6-2.8,4c4.4,0,8.8,0,13.3,0c0-1.3,0-2.4,0-3.6c-1-0.1-1.9-0.2-2.8-0.3
		c0-5.7,0-11.2,0-16.9c1-0.1,1.9-0.2,2.9-0.2C381.4,431.3,381.4,430.2,381.4,428.7z M296.4,449.6c0-5.7,0-11.2,0-16.9
		c1-0.1,2-0.1,2.9-0.2c0-1.3,0-2.5,0-3.7c-4.6,0-9,0-13.3,0c0,1.4,0,2.5,0,3.7c1,0.1,1.9,0.1,2.8,0.2c0,5.7,0,11.3,0,16.9
		c-1,0.1-1.9,0.2-2.8,0.3c0,1.3,0,2.4,0,3.6c4.5,0,9,0,13.4,0C299.7,450,299.7,450,296.4,449.6z M354.9,491.7c0-5.7,0-11.3,0-16.9
		c1-0.1,1.9-0.2,2.8-0.2c0-1.3,0-2.5,0-3.7c-4.5,0-8.9,0-13.4,0c0,1.3,0,2.5,0,3.7c1.1,0.1,2,0.2,2.9,0.3c0,5.7,0,11.3,0,16.9
		c-1,0.1-1.9,0.1-2.8,0.2c-0.1,0.5-0.1,1-0.2,1.4c-0.1,2.4-0.1,2.4,2.3,2.4c1.7,0,3.4,0,5.2,0c2,0,4,0,6,0c0-1.5,0-2.7,0-3.9
		C356.7,491.8,355.8,491.8,354.9,491.7z M291,407.8c0-5.8,0-11.3,0-16.9c1-0.1,1.9-0.2,2.9-0.3c0-0.5,0.1-1,0.1-1.4
		c0.1-2.5,0.1-2.5-2.3-2.5c-2.1,0-4.2,0-6.3,0c-1.6,0-3.3,0-4.9,0c0,1.5,0,2.7,0,3.9c1,0.1,1.9,0.2,2.8,0.3c0,5.7,0,11.3,0,16.9
		c-1,0.1-1.9,0.2-2.8,0.3c0,1.3,0,2.4,0,3.5c4.6,0,9,0,13.3,0c0-1.3,0-2.4,0-3.5C292.9,408,292,407.9,291,407.8z"/>
	<path fill="#FFFFFF" d="M170.5,191c-2.6-1.9-5.2-3.6-7.5-5.6c-7.1-6.2-9.4-14-8.1-23.2c1.8-12.3,8.8-20.5,20.4-24.4
		c16.7-5.7,33.6-5.7,50.3,0.1c2.7,0.9,5.3,2.4,7.8,4c10.4,6.9,11.6,19.1,8.4,26.5c-2.2,5.1-6.4,8.1-11.2,10.4
		c-1.5,0.8-3.1,1.4-4.9,2.1c2,1,3.8,1.8,5.6,2.7c8.1,4.2,14.5,10.1,16.6,19.3c2.6,11.3,1.2,22-7,30.8c-5.4,5.8-12.4,8.8-19.9,10.7
		c-10.5,2.7-21.1,2.9-31.8,2.1c-7.6-0.6-15-1.9-22-5.1c-8.5-3.8-14.7-9.8-16.1-19.4c-1.9-13.2,2.6-23.6,15.6-29.6
		C167.9,192.1,169.2,191.5,170.5,191z M199.6,230.8c1.1,0,2.3,0.1,3.4,0c5.1-0.5,10.1-1.6,14.1-5.1c4.2-3.6,4.4-9.8,0.4-13.5
		c-1.4-1.3-3-2.5-4.7-3.1c-9-3.5-18-6.9-27-10.3c-0.5-0.2-1.4,0-1.9,0.2c-3.3,1.6-5.7,4.2-7.5,7.3c-4.7,8.2-2.2,16.8,6.3,21.1
		C187.9,230,193.7,230.7,199.6,230.8z M201,148c-1,0-1.9-0.1-2.9,0c-4.3,0.4-8.4,1.2-11.9,4c-4.3,3.4-5,13,2.8,15.4
		c5.5,1.7,11.1,3.5,16.3,5.8c3.8,1.7,6.7,1.2,10.1-1.2c4.4-3.1,6.5-7,6.1-12.3c-0.4-4.9-3.7-7.7-7.9-9.5
		C209.7,148.5,205.4,147.9,201,148z"/>
	<path fill="#FFFFFF" d="M279.5,221.7c7.9-4.9,16.6-6.3,25.7-5.4c5.8,0.6,11.4,2.3,17.2,3.4c2.7,0.5,5.4,1,8.1,1c4,0,6-2.2,5.9-6.3
		c0-0.9-0.2-1.8-0.4-2.6c-1.1-5,1.6-8.7,6.6-9.3c1.4-0.2,2.8-0.1,4.2,0c3.7,0.5,5.8,2.6,6.3,6.8c0.9,7.1,0.6,14.1-1.6,21
		c-2.9,9.4-9.7,14.3-19.1,15.9c-9.9,1.7-19.2-0.2-28.3-3.9c-3.6-1.5-7.3-3-11-4.2c-4-1.4-7.8-0.7-11.3,1.7c-1.5,1-2.9,2.3-4.3,3.5
		c-4.3,3.7-9,4.8-14.4,2.7c-4.3-1.7-6.4-4.9-6.8-9.5c-1.2-13.1,4-23.4,14.5-30.7c6.8-4.8,14.2-8.6,21.4-12.8
		c4.6-2.7,9.3-5.3,13.7-8.2c4.6-3,8.4-6.9,10-12.4c3.3-11.1-3.6-21.6-15.4-23.5c-7.8-1.3-14.9,0.1-21.2,5.1c-2.5,2-4.3,4.5-5.3,7.7
		c1.9-0.3,3.7-0.6,5.5-0.8c7.8-0.9,14,7.3,12.8,14.9c-1.1,7-5.7,11.2-13.1,12c-3.9,0.4-7.8,0.4-11.5-1.2c-6.8-3-10.3-8.5-10.6-15.7
		c-0.6-14.8,6.6-24.8,19.5-31.1c10.4-5,21.4-6.5,32.9-5.7c7.3,0.5,14.4,2,21,5.1c10,4.8,16.7,12.2,18.6,23.3
		c1.6,9.9,0.5,19.3-6.2,27.4c-3.8,4.6-8.7,7.7-14.2,9.7c-7.8,2.8-15.9,5-23.7,7.7c-5.5,1.9-11,4.1-16.3,6.5
		C285.1,215.4,281.9,218.2,279.5,221.7z"/>
	<path fill="#FFFFFF" d="M430.1,149.1c-2.6-0.6-5.1-1.7-7.7-1.8c-13.6-0.7-23.5,7.5-25.6,21c-0.4,2.2-0.7,4.4-0.7,6.6
		c-0.1,3.5,0,7.1,0,10.9c0.8-0.5,1.4-0.8,1.9-1.2c8.3-5.8,17.7-7,27.5-6.5c7.2,0.4,14.1,2.1,20.2,6.1c10.9,7.2,15.1,17.5,13.9,30.2
		c-1.3,14.5-9.8,23.7-23.1,28.5c-15.1,5.5-30.5,5.3-45.6-0.1c-13.5-4.9-21.9-14.9-25.4-28.6c-4.4-17.2-3.5-34.4,3.2-50.9
		c6.7-16.4,19.5-25.5,36.7-28.5c11.6-2.1,22.9-1.5,33.9,3c4.5,1.9,8.7,4.3,11.9,8c4.8,5.6,5.2,11.8,2.6,18.4c-1,2.6-3,4.6-5.6,5.7
		c-5.1,2.3-10.4,2.8-15.8,1.2c-6.9-2.1-10.3-8.5-8.3-15.1c0.7-2.4,1.8-3.5,5.8-6.3C430,149.5,430,149.3,430.1,149.1z M426.8,212.3
		c-0.1-4.2-0.5-8.3-2.3-12.1c-2.3-4.9-6.2-7.4-11.6-7.5c-5.6-0.2-10.1,1.8-12.4,7.1c-1.3,3-2,6.4-2.4,9.7c-0.6,5.2-0.1,10.3,2.4,15
		c2.6,5.1,7,7.3,12.7,7.1c5.4-0.2,9.1-2.8,11.4-7.6C426.3,220.3,426.7,216.3,426.8,212.3z"/>
	<path fill="#FFFFFF" d="M324.7,272.4c12.9,0,23.2,10.7,23.2,24.1c0,13.3-10.3,23.8-23.3,23.8c-13,0.1-23.4-10.6-23.4-23.9
		C301.2,283.1,311.6,272.4,324.7,272.4z M336.3,296.3c0-6.8-5.3-12.3-11.8-12.3c-6.5,0-11.9,5.6-11.8,12.4c0,6.6,5.3,11.9,11.8,11.9
		C331.2,308.4,336.4,303.1,336.3,296.3z"/>
	<path fill="#FFFFFF" d="M148.5,296.2c0-1.1,0-1.7,0-2.4c0-6,0-12,0-18c0-2.4,0.4-2.8,2.8-2.8c2,0,4.1,0,6.1,0
		c2.4,0,2.8,0.4,2.8,2.8c0,13.8,0,27.6,0,41.4c0,1.2,0.1,2.6-1.4,2.8c-1.1,0.1-2.6-0.2-3.4-0.9c-2.9-2.6-5.7-5.5-8.5-8.3
		c-4.8-4.8-9.6-9.5-14.4-14.3c-0.3-0.3-0.7-0.6-1.3-1.2c0,0.9-0.1,1.5-0.1,2.1c0,6.3,0,12.6,0,18.9c0,2.6-0.5,3.1-3.1,3.1
		c-1.8,0-3.6,0-5.3,0c-2.8,0-3.2-0.4-3.2-3.2c0-9.2,0-18.3,0-27.5c0-4.3-0.2-8.7-0.1-13c0-1.1,0.4-2.8,1.2-3.3
		c1.4-0.9,2.9-0.2,4.2,1c7.4,7.1,14.9,14.2,22.4,21.3C147.5,295.3,147.8,295.6,148.5,296.2z"/>
	<path fill="#FFFFFF" d="M374.2,295.5c0,7.2,0,14,0,20.8c0,2.8-0.4,3.2-3.2,3.2c-1.9,0-3.8,0-5.7,0c-1.6,0-2.4-0.7-2.4-2.3
		c0-14.1-0.1-28.3,0-42.4c0-0.8,0.6-2.2,1.1-2.3c1-0.2,2.6-0.1,3.3,0.6c2.7,2.3,5.1,4.9,7.7,7.4c4.9,4.8,9.7,9.6,14.6,14.4
		c0.3,0.3,0.6,0.6,1.3,1.1c0-3.2,0-6.1,0-9c0-3.9,0-7.8,0-11.7c0-1.6,0.7-2.4,2.3-2.3c2.2,0,4.3,0,6.5,0c2.1,0,2.5,0.5,2.5,2.7
		c0,9.1,0,18.2,0,27.3c0,4.8,0,9.6,0,14.3c0,1.1,0,2.2-1.3,2.7c-1.3,0.5-2.5,0.1-3.5-0.9c-5.5-5.7-11-11.4-16.5-17
		C378.9,300,376.7,297.9,374.2,295.5z"/>
	<path fill="#FFFFFF" d="M212.7,319.6c-4.5,1.2-6.7-1.1-7.9-5c-0.4-1.4-1.3-1.8-2.7-1.8c-4.5,0.1-8.9,0.1-13.4,0
		c-1.2,0-1.8,0.4-2.3,1.5c-2.6,5.7-1.7,5.3-8.3,5.3c-0.8,0-1.7,0-2.5,0c-2.8,0-3.5-1-2.3-3.5c3.4-7.2,6.8-14.5,10.2-21.7
		c3.1-6.7,6.3-13.3,9.4-20c0.5-1.1,1.1-2,2.5-2c1.4,0,2,0.8,2.5,1.9c6.6,14,13.2,27.9,19.8,41.9c1.1,2.3,0.4,3.4-2.1,3.4
		C214.7,319.6,213.7,319.6,212.7,319.6z M199.4,302.5c-1.3-2.8-2.5-5.3-3.8-8.2c-1.3,2.9-2.5,5.4-3.8,8.2
		C194.4,302.5,196.7,302.5,199.4,302.5z"/>
	<path fill="#FFFFFF" d="M453.3,319.6c-0.1,0-0.1,0-0.2,0c-3.9,0.7-6.3-0.9-7.3-4.8c-0.4-1.6-1.4-2.1-3.1-2.1
		c-4.1,0.1-8.3,0.1-12.4,0c-1.2,0-1.8,0.4-2.3,1.5c-2.6,5.9-1.8,5.3-8.2,5.3c-0.8,0-1.7,0-2.5,0c-2.3,0-3-1.1-2.1-3.2
		c1.6-3.7,3.4-7.4,5-11.1c4.6-10.2,9.2-20.4,13.9-30.6c0.5-1.1,0.9-2.3,2.6-2.3c1.7,0,2.1,1.2,2.6,2.3c6.2,13.5,12.3,27.1,18.5,40.6
		c1.6,3.5,1.1,4.3-2.7,4.3C454.6,319.6,453.9,319.6,453.3,319.6z M440.5,302.6c-1.2-2.7-2.4-5.3-3.7-8.2c-1.3,2.9-2.4,5.5-3.6,8.2
		C435.7,302.6,438,302.6,440.5,302.6z"/>
	<path fill="#FFFFFF" d="M307.2,356.6c-15.9,0-31.8,0-47.8,0c-0.8,0-1.7,0-2.5-0.2c-1.8-0.5-2.9-2-2.9-3.8c0-1.8,1.1-3.3,2.9-3.7
		c0.8-0.2,1.6-0.3,2.4-0.3c31.8,0,63.7,0,95.5,0c0.7,0,1.4,0,2.1,0.2c2.2,0.5,3.5,2.1,3.3,4.2c-0.1,1.9-1.7,3.5-3.8,3.7
		c-0.6,0.1-1.3,0-1.9,0C338.9,356.6,323.1,356.6,307.2,356.6z"/>
	<path fill="#FFFFFF" d="M235.4,283.9c-3.1,0-5.8,0-8.6,0c-2.7,0-3.2-0.6-3.2-3.3c0-1.8,0-3.6,0-5.3c0-1.6,0.8-2.3,2.4-2.3
		c10.2,0,20.5,0,30.7,0c1.8,0,2.5,0.9,2.5,2.6c0,1.8,0,3.7,0,5.5c0,2-0.7,2.7-2.8,2.8c-2.9,0-5.8,0-9,0c0,0.9-0.1,1.7-0.1,2.5
		c0,9.9,0,19.9,0,29.8c0,3-0.4,3.4-3.4,3.4c-1.8,0-3.6,0-5.3,0c-2.4,0-3-0.6-3-3c0-9.9,0-19.9,0-29.8
		C235.4,285.9,235.4,285.1,235.4,283.9z"/>
	<path fill="#FFFFFF" d="M481.1,308.7c4.7,0,9.2,0,13.7,0c2.6,0,3,0.4,3,3c0,1.8,0,3.7,0,5.5c0,1.6-0.7,2.3-2.3,2.3
		c-8,0-15.9,0-23.9,0c-1.8,0-2.3-0.8-2.4-2.9c0-11.1,0-22.2,0-33.2c0-2.6,0-5.2,0-7.8c0-1.7,0.7-2.6,2.5-2.5c2.1,0.1,4.2,0,6.3,0
		c2.5,0,2.9,0.4,2.9,2.9c0,10.1,0,20.1,0,30.2C481,306.9,481.1,307.7,481.1,308.7z"/>
	<path fill="#FFFFFF" d="M228.9,390.8c1.3,4.5,2.5,9,3.7,13.4c0.1,0,0.3,0,0.4,0c1.2-4.5,2.4-8.9,3.6-13.5c-1.1-0.1-1.9-0.2-2.9-0.2
		c-0.1-0.5-0.2-0.9-0.2-1.4c-0.1-2.4,0-2.4,2.4-2.4c1.8,0,3.7,0.1,5.5,0c1.9-0.2,2.8,0.4,2.4,2.4c-0.1,0.4-0.1,0.9-0.1,1.3
		c-3,0.8-3,0.8-4,4c-1.6,5.2-3.2,10.4-4.7,15.7c-0.4,1.4-0.9,1.9-2.5,1.9c-5.2-0.1-5.2,0-6.7-4.9c-0.7-2.4-1.4-4.7-2.3-7.6
		c-1.4,3.8-2.7,7.1-3.9,10.6c-0.5,1.5-1.2,1.9-2.7,1.9c-5-0.1-5,0-6.4-4.8c-1.3-4.5-2.7-9-3.9-13.5c-0.5-2-1-3.7-3.8-2.9
		c0-1.4,0-2.6,0-3.9c4.4,0,8.7,0,13.3,0c0,1.2,0,2.3,0,3.6c-0.7,0.1-1.3,0.1-2.3,0.2c1.2,4.6,2.4,9.1,3.6,13.6
		c0.1,0,0.3,0.1,0.4,0.1c1.1-3,2.3-6,3.4-9c0.2-0.7,0.5-1.5,0.4-2.2c-0.3-1.6-0.5-3.5-2.9-2.7c-0.2-0.3-0.3-0.4-0.3-0.5
		c-0.3-3.5-0.3-3.5,3.2-3.5c2.4,0,4.8,0,7.3,0c2.5,0,2.5,0,2.5,2.5c0,0.4-0.1,0.7-0.1,1.2C230.5,390.6,229.8,390.7,228.9,390.8z"/>
	<path fill="#FFFFFF" d="M286,296.4c0,6.7,0,13.5,0,20.2c0,2.5-0.5,3-3,3c-2,0-4.1,0-6.1,0c-1.8,0-2.6-0.7-2.6-2.5
		c0-13.9,0-27.7,0-41.6c0-1.8,0.8-2.5,2.6-2.5c2.2,0.1,4.5,0.1,6.7,0c1.8,0,2.5,0.8,2.5,2.5C285.9,282.5,286,289.4,286,296.4z"/>
	<path fill="#FFFFFF" d="M335.4,432.8c-0.9-0.1-1.8-0.1-2.7-0.2c-0.1-0.6-0.1-1.1-0.2-1.7c-0.3-1.8,0.5-2.3,2.2-2.2
		c3,0.1,6.1,0,9.2,0c2.5,0,2.5,0,2.4,2.6c0,0.4-0.1,0.7-0.1,1.2c-0.5,0.1-1,0.1-1.5,0.2c-0.4,0-0.9,0-1.7,0c0,1.8,0,3.6,0,5.3
		c0,0.3,0.6,0.9,1,0.9c2.4,0.1,4.8,0,7.4,0c0-2.1,0-4,0-6.1c-0.9-0.1-1.9-0.1-2.9-0.2c0-1.3,0-2.4,0-3.7c4.5,0,8.8,0,13.4,0
		c0,1.2,0,2.4,0,3.7c-0.9,0.1-1.8,0.1-2.8,0.2c0,5.6,0,11.2,0,16.9c0.9,0.1,1.7,0.2,2.8,0.3c0,1.2,0,2.4,0,3.6c-4.4,0-8.8,0-13.2,0
		c-0.7-3.4-0.7-3.5,2.8-4c0-2.2,0-4.4,0-6.9c-2.4,0-4.9,0-7.4,0c-0.4,0-1,0.7-1,1c-0.1,1.9,0,3.8,0,5.6c3.6,0.9,3.6,0.9,3,4.1
		c-4.4,0-8.8,0-13.2,0c-0.9-3.2-0.6-3.6,2.6-4C335.4,444.1,335.4,438.5,335.4,432.8z"/>
	<path fill="#FFFFFF" d="M315.6,474.9c-3.2-0.5-3.2-0.5-2.7-4c0.4-0.1,0.9-0.2,1.4-0.2c4.7,0,9.4-0.1,14.1,0.1
		c1.9,0.1,3.8,0.6,5.5,1.2c2.3,0.9,3.5,2.7,3.5,5.2c-0.1,2.6-1.5,4.3-3.9,5.1c-1,0.3-1.9,0.6-3.2,1c5.4,0.4,6,4.3,6,8.7
		c0.3-0.1,0.6-0.1,0.9-0.2c0.4-0.8,0.7-1.8,1.3-2.2c0.6-0.3,1.6,0.1,2.4,0.1c-0.1,4-2.4,6.4-6,6.4c-4.1,0-6.2-1.9-6.3-5.9
		c0-0.2,0-0.4,0-0.6c0-4.3-0.7-4.9-5.3-4.5c0,2.1,0,4.2,0,6.4c0.3,0.1,0.6,0.1,0.9,0.1c2,0.1,3,1.4,2.1,3.3c-0.2,0.4-1,0.6-1.5,0.6
		c-3.5,0.1-7,0-10.5,0.1c-1.4,0-1.7-0.6-1.7-1.8c0.1-1.1-0.2-2.3,1.5-2.1c0.4,0,0.9-0.1,1.4-0.1C315.6,486,315.6,480.5,315.6,474.9z
		 M323.1,477.7c0,3.6,0,3.6,2.1,3.6c3.1,0,4.3-1,4.3-3.5c0-2.5-1.1-3.4-4.4-3.4C323.1,474.4,323.1,474.4,323.1,477.7z"/>
	<path fill="#FFFFFF" d="M248.4,390.6c0-1.3,0-2.4,0-3.6c0.4-0.1,0.7-0.2,1-0.2c5.3,0.1,10.7,0.1,16,0.3c1.4,0.1,2.9,0.6,4.2,1.2
		c2.1,1,3.4,2.7,3.3,5.1c0,2.5-1.4,4.1-3.7,5.1c-0.9,0.3-1.8,0.6-3.2,1.1c4,0.7,5.6,2.9,5.7,6.4c0,0.6,0.4,1.2,0.7,1.8
		c0.4-0.5,0.9-1,1.3-1.6c0.2-0.2,0.3-0.4,0.5-0.7c0.8,0.2,1.5,0.5,2.3,0.7c-0.3,5.4-5.3,8.1-9.8,5.5c-1.9-1.1-2.4-3-2.6-5
		c0-0.4,0-0.8,0-1.1c0-4.1-0.8-4.7-5.1-4c0,2,0,4.1,0,6.3c0.9,0.1,1.9,0.2,2.9,0.3c0,1.2,0,2.3,0,3.5c-4.4,0-8.8,0-13.4,0
		c0-1.1,0-2.3,0-3.4c2.8-0.7,2.8-0.7,2.8-3.7c0-3.6,0-7.1,0-10.7C251.3,390.9,251.3,390.9,248.4,390.6z M258.9,390.6
		c0,2.3,0,4.4,0,6.8c2-0.1,4.3,0.9,5.6-1.2c0.6-1.1,0.7-3,0.1-4.1C263.5,389.7,261,390.9,258.9,390.6z"/>
	<path fill="#FFFFFF" d="M384.2,487.5c0-4.6,0-8.6,0-12.5c-3.5-0.8-3.6-0.8-2.8-4.1c3.2,0,6.4,0,9.7,0c0,1.3,0,2.4,0,3.7
		c-0.9,0.1-1.7,0.2-2.7,0.2c0,1.7,0,3.2,0,4.8c0,4.8,0,9.6,0,14.3c0,1.5-0.4,1.9-2,2.2c-4.3,0.6-7-0.8-8.8-5
		c-2-4.6-4.8-8.8-7.6-13.6c0,5,0,9.5,0,14.1c0.9,0.1,1.8,0.2,2.8,0.3c0,1.2,0,2.3,0,3.6c-3.1,0-6.3,0-9.6,0c0-1.1,0-2.3,0-3.6
		c0.8-0.1,1.6-0.2,2.5-0.3c0-5.6,0-11.1,0-16.8c-0.8-0.1-1.6-0.2-2.6-0.3c0-1.2,0-2.4,0-3.8c3.7,0,7.4,0,11,0.1c0.4,0,1,0.7,1.3,1.2
		c2.5,4.4,5,8.8,7.5,13.3C383.2,485.9,383.6,486.5,384.2,487.5z"/>
	<path fill="#FFFFFF" d="M390.1,432.8c-0.9-0.1-1.7-0.1-2.6-0.2c-0.1-0.4-0.2-0.7-0.2-1.1c-0.1-2.8-0.1-2.8,2.6-2.8
		c2.5,0,5.1,0.1,7.6,0c1.2,0,1.8,0.4,2.4,1.4c2.5,4.5,5.1,9,7.6,13.4c0.3,0.5,0.6,1,1,1.7c0-4.4,0-8.4,0-12.5
		c-1-0.1-1.9-0.1-2.7-0.2c-0.1-0.2-0.2-0.3-0.2-0.4c-0.3-3.5-0.3-3.5,3.1-3.5c2.2,0,4.4,0,6.8,0c0,1.4,0,2.5,0,3.8
		c-0.9,0.1-1.7,0.1-2.8,0.2c0,7,0,14,0,21.2c-2.6,0-4.9,0.1-7.2-0.1c-0.5,0-1.1-0.9-1.5-1.5c-3.2-5.5-6.3-11-9.6-16.9
		c0,4.9,0,9.4,0,14c3.2,0.9,3.2,0.9,2.9,4.2c-3.1,0-6.1,0.1-9.2-0.1c-0.3,0-0.7-1.3-0.7-2c0-0.6,0.4-1.4,0.9-1.7
		c0.4-0.3,1.2-0.2,1.9-0.2C390.1,444,390.1,438.5,390.1,432.8z"/>
	<path fill="#FFFFFF" d="M375.4,412.1c-2.6,0-4.9,0.1-7.1-0.1c-0.6,0-1.2-0.8-1.5-1.4c-3.1-5.4-6.2-10.9-9.6-16.8c0,4.9,0,9.4,0,14
		c0.9,0.1,1.8,0.2,2.8,0.3c0,1.1,0,2.2,0,3.5c-3.3,0-6.5,0-9.8,0c0-1.1,0-2.2,0-3.3c0.1-0.1,0.2-0.2,0.3-0.2
		c2.5-0.3,2.5-0.3,2.5-2.9c0-3.8,0-7.6,0-11.5c0-2.8,0-2.8-2.7-3.1c-0.1-0.2-0.2-0.4-0.2-0.6c-0.2-3.2-0.2-3.2,3-3.2
		c2.3,0,4.6,0.1,6.9,0c1.3-0.1,2.1,0.4,2.7,1.6c2.6,4.7,5.3,9.4,8,14.1c0.2,0.3,0.4,0.6,0.8,1.2c0-4.4,0-8.5,0-12.7
		c-1-0.1-1.9-0.2-2.9-0.3c0-1.3,0-2.4,0-3.9c3,0,5.9-0.1,8.8,0c1.5,0,1,1.3,1.1,2.2c0,0.8,0.2,1.8-1.1,1.8c-0.6,0-1.1,0.1-1.8,0.2
		C375.4,397.9,375.4,404.8,375.4,412.1z"/>
	<path fill="#FFFFFF" d="M227.6,453.7c-0.6-3.6-0.6-3.6,2.7-4.1c0-5.5,0-11.1,0-16.8c-0.9-0.1-1.7-0.1-2.7-0.2
		c-0.1-0.4-0.2-0.7-0.2-1.1c-0.1-2.8-0.1-2.8,2.7-2.8c4.8,0.1,9.7,0.2,14.5,0.4c1.2,0.1,2.4,0.5,3.5,1c2,0.9,3.1,2.5,3.1,4.8
		c0,2.3-1.2,3.8-3.2,4.8c-0.8,0.4-1.8,0.7-2.7,1c1,0.3,1.9,0.5,2.8,0.9c2.2,0.8,3.6,2.3,3.8,4.7c0.2,2.6-0.7,4.7-3.1,5.8
		c-1.5,0.7-3.2,1.4-4.9,1.4C238.5,453.8,233.1,453.7,227.6,453.7z M237.9,449.8c2.1-0.1,4.4,0.8,5.9-1.2c1-1.3,1.1-3,0.1-4.3
		c-1.5-2.1-3.8-1.3-6-1.3C237.9,445.3,237.9,447.4,237.9,449.8z M237.9,438.8c1.9,0,4,0.7,5.2-1.2c0.6-0.9,0.7-2.8,0.1-3.7
		c-1.2-1.9-3.4-1.2-5.4-1.2C237.9,434.9,237.9,436.7,237.9,438.8z"/>
	<path fill="#FFFFFF" d="M400.3,402.6c-1.1,0-2.2-0.1-3.5-0.2c0-1.2,0-2.4,0-3.9c1.9,0,3.7,0,5.6,0c1.9,0,3.8,0,5.7,0
		c2.5,0,2.5,0,2.4,2.6c0,0.4-0.1,0.7-0.1,1.3c-0.8,0.1-1.5,0.2-2.5,0.3c0,3,0,6.1,0,9.1c-3.6,0.8-3.7,0.8-5.7-2.9
		c-2.2,3.5-5.5,4.1-9.2,3.4c-4.2-0.8-7.1-3.2-8.7-7.2c-3.2-8,0.8-16.6,8.7-18.5c3.4-0.8,6.6-0.2,9.2,2.3c0.9-0.8,0.3-2.6,2.2-2.6
		c3,0,3-0.1,3,2.9c0,1.8,0,3.7,0,5.5c0,1.1-0.4,1.6-1.5,1.5c-0.3,0-0.5,0-0.8,0c-2.1,0.3-3.5-0.1-4.2-2.6c-0.7-2.6-2.8-3.8-4.8-3.6
		c-2,0.2-4,1.7-4.3,4.3c-0.4,3.4-0.1,6.8-0.1,10.2c0,0.2,0.1,0.4,0.2,0.5c1,2.6,3.1,3.9,5.2,3.4
		C399.7,407.7,400.7,405.7,400.3,402.6z"/>
	<path fill="#FFFFFF" d="M414.5,472.8c1.1-2.8,1.1-2.8,4.7-2.4c0,3.1,0,6.3,0,9.7c-1.4,0-2.8,0.1-4.2-0.1c-0.5,0-1-0.6-1.2-1.1
		c-0.5-0.9-0.8-1.9-1.3-2.8c-2-3.3-6.2-3.2-7.8,0.2c-2,4.4-1.9,8.9-0.1,13.3c0.8,1.9,2.7,2.8,4.7,2.4c1.9-0.3,2.7-1.7,3-3.4
		c0.1-0.6,0.2-1.2,0.3-2.1c-0.7,0-1.3-0.1-1.9-0.1c-2,0-3-1.5-2.1-3.4c0.1-0.3,0.7-0.6,1-0.6c4.2,0,8.4,0,12.5,0
		c0.7,3.4,0.6,3.7-2.2,4.3c0,2.3,0.1,4.7,0,7.1c0,0.7-0.6,2-1,2c-1.3,0.1-3,0.9-3.7-1.2c-0.2-0.6-0.5-1.2-0.6-1.5
		c-1.7,1-3.3,2.4-5.1,2.8c-6.4,1.3-12.2-2.4-13.6-8.9c-1.2-5.2-0.3-10,3.8-13.8C402.9,470.2,409.5,468.3,414.5,472.8z"/>
	<path fill="#FFFFFF" d="M439.6,430.7c1.1-2.7,1.2-2.8,4.8-2.1c0,3.1,0,6.2,0,9.6c-1.5,0-3,0.1-4.5,0c-0.3,0-0.7-0.6-0.9-1
		c-0.6-1.1-1-2.4-1.7-3.4c-1.9-2.5-5.3-2.4-7.1,0.2c-2.2,3.2-2.2,11.1-0.1,14.3c1.2,1.8,3.2,2.6,5.1,1.9c1.8-0.6,2.6-2.5,2.5-5.3
		c-1.2-0.2-2.7-0.1-3.7-0.8c-0.5-0.3-0.1-2-0.1-3.4c2.3,0,4.5,0,6.8,0c2.2,0,4.5,0,6.8,0c0,1.3,0,2.5,0,3.9
		c-0.7,0.1-1.4,0.1-2.4,0.2c0,2.4,0.1,4.8,0,7.2c0,0.8,0.7,2.2-1,2.2c-1.3,0-3,0.8-3.7-1.3c-0.2-0.6-0.5-1.2-0.8-1.9
		c-3.3,4.3-7.5,4.4-11.8,2.6c-4.7-1.9-6.7-5.8-7.1-10.7c-0.3-4.5,0.9-8.5,4.4-11.5C429.2,427.5,434.3,427.3,439.6,430.7z"/>
	<path fill="#FFFFFF" d="M307.8,483.2c0,7.9-5.4,13.4-13.1,13.2c-7.9-0.1-13-5.4-13-13.2c0-7.7,5.5-13.1,13.1-13.2
		C302.6,470,307.8,475.3,307.8,483.2z M289.4,483.1c0.4,2.1,0.6,4.5,1.3,6.7c0.6,1.8,2.1,2.8,4.1,2.8c1.8,0,3.3-0.6,4-2.4
		c1.6-4.6,1.7-9.2-0.1-13.8c-0.7-2-2.4-2.7-4.5-2.5c-2,0.1-3.3,1.2-3.7,3C290,478.8,289.8,480.8,289.4,483.1z"/>
	<path fill="#FFFFFF" d="M310.4,451.7c-0.2,2.4-1.6,3.1-3.6,2.6c-0.4-0.1-1.1-0.7-1.1-1.1c-0.1-2.7-0.1-5.4-0.1-8.4
		c1.2,0,2.3-0.1,3.3,0.1c0.5,0.1,1,0.7,1.2,1.2c1.6,3.5,3.8,4.8,7.5,4.5c1.5-0.1,2.8-0.6,3.1-2.3c0.3-1.8-1.1-2.2-2.4-2.6
		c-2.3-0.6-4.6-1.1-6.8-1.9c-4.4-1.5-6.1-4.1-5.6-8.5c0.4-3.5,3.6-6.5,7.5-7c3.3-0.4,4.8,0,7.8,2.1c0.4-2.9,2.5-2.1,4.5-2
		c0,2.9,0,5.8,0,8.6c-2.8,0.8-3.5,0.6-4.8-1.9c-1.5-2.7-4.1-3.9-6.7-2.8c-0.8,0.4-1.8,1.4-1.9,2.2c-0.1,0.6,0.9,1.8,1.6,2.1
		c1.7,0.7,3.5,1,5.3,1.6c1.2,0.3,2.3,0.7,3.4,1.1c2.5,1,4.1,2.8,4.4,5.5c0.3,3.2-0.5,6-3.4,7.8c-3.8,2.4-7.8,2.4-11.8,0.1
		c-0.3-0.2-0.5-0.4-0.8-0.6C311.1,452.1,310.9,452,310.4,451.7z"/>
	<path fill="#FFFFFF" d="M198.1,432.8c-1-0.1-1.9-0.1-2.8-0.2c0-1.3,0-2.4,0-3.7c4.5,0,9,0,13.5,0c0,1.3,0,2.5,0,3.8
		c-1,0.1-1.9,0.1-3,0.2c0,4.6-0.2,9.1,0.1,13.6c0.1,2.5,2.1,3.5,5.1,3.4c2.7-0.1,4.4-1.5,4.5-4.2c0.2-4.2,0-8.4,0-12.8
		c-0.9-0.1-1.8-0.1-2.7-0.2c-0.1-0.4-0.2-0.8-0.2-1.3c-0.1-2.6-0.1-2.6,2.6-2.6c2.4,0,4.8,0,7.4,0c0,1.4,0,2.5,0,3.8
		c-0.8,0.1-1.6,0.2-2.6,0.3c0,1.3,0,2.6,0,4c0,2.7,0.1,5.5,0,8.2c-0.1,5.1-3,8.5-8,9.1c-2.3,0.3-4.8,0.1-7.1-0.4
		c-4.3-1-6.4-3.9-6.5-8.3c-0.1-3.5,0-7,0-10.5C198.2,434.3,198.1,433.6,198.1,432.8z"/>
	<path fill="#FFFFFF" d="M179.7,453.6c-4.5,0-8.9,0-13.4,0c0-1.2,0-2.3,0-3.6c0.9-0.1,1.9-0.2,2.9-0.3c0-5.6,0-11.1,0-16.8
		c-0.9-0.1-1.8-0.1-2.8-0.2c0-1.2,0-2.4,0-3.6c0.1-0.1,0.2-0.2,0.3-0.2c5.5,0.1,11.1-0.1,16.6,0.4c5.4,0.4,8.1,4.6,6.9,9.5
		c-0.7,2.8-2.6,4.3-5.2,5c-1.3,0.4-2.6,0.6-3.9,0.7c-1.3,0.1-2.7,0-4.2,0c0,1.7,0,3.4,0,5c0.9,0.3,2.3,0.3,2.8,0.9
		C180.1,451.1,179.7,452.4,179.7,453.6z M176.7,440.5c2.1-0.1,4.2,0.7,5.3-1.5c0.9-1.7,1-3.7-0.2-5.3c-1.3-1.8-3.3-1.1-5.1-1.1
		C176.7,435.4,176.7,437.8,176.7,440.5z"/>
	<path fill="#FFFFFF" d="M240.7,474.8c-0.9-0.1-1.7-0.1-2.6-0.2c0-1.2,0-2.4,0-3.7c3.2,0,6.4,0,9.6,0c0.9,3.3,0.6,3.7-2.5,4
		c0,0.5-0.1,1.1-0.1,1.6c0,3.3,0,6.6,0,9.9c0.1,6.2-3.6,10-10.6,10c-1.6,0-3.2-0.3-4.7-0.7c-4-1.1-6.3-4.1-6.3-8.3
		c0-4.1,0-8.3,0-12.6c-1-0.1-1.9-0.2-2.9-0.3c0-1.3,0-2.4,0-3.8c4.3,0,8.5,0,12.8,0c1.5,0,0.9,1.3,0.9,2.1c-0.1,0.6-0.5,1.5-1,1.8
		c-0.5,0.3-1.3,0.1-2.2,0.1c0,4.6-0.2,9,0.1,13.4c0.2,2.6,2,3.6,4.7,3.6c2.7,0,4.6-1.2,4.8-3.7C240.9,483.7,240.7,479.3,240.7,474.8
		z"/>
	<path fill="#FFFFFF" d="M268.2,491.7c1.2,0.1,2.2,0.1,3.4,0.2c0,1.2,0,2.4,0,3.7c-4.8,0-9.5,0-14.4,0c0-1.2,0-2.4,0-3.7
		c1-0.1,2-0.1,3.2-0.2c0-5.8,0-11.5,0-17.3c-1.8-0.5-2.9,0.3-3.5,1.8c-0.4,1.1-0.6,2.3-0.9,3.5c-0.4,1.6-2.2,2.4-3.6,1.6
		c-0.3-0.2-0.5-0.6-0.5-0.9c0-3.2,0-6.3,0-9.6c0.8-0.1,1.3-0.1,1.9-0.1c7.1,0,14.3,0,21.4,0c1.5,0,2,0.5,1.9,2
		c-0.1,2.4,0,4.8-0.1,7.3c0,0.5-0.7,1.5-1.1,1.5c-1,0-2.5,0.8-3-1c-0.3-1.4-0.6-2.7-1.1-4.1c-0.6-1.7-1.8-2.4-3.7-1.9
		C268.2,480.2,268.2,485.9,268.2,491.7z"/>
	<path fill="#FFFFFF" d="M216.4,470.7c0,3.4,0,6.5-0.1,9.6c0,0.4-0.7,1.1-1.1,1.1c-1-0.1-2.4,0.8-2.9-0.9c-0.4-1.3-0.7-2.7-1.1-4
		c-0.5-1.7-1.6-2.5-3.6-2c0,5.7,0,11.4,0,17.2c1.1,0.1,2.1,0.2,3.3,0.2c0,1.3,0,2.4,0,3.8c-4.6,0-9.1,0.1-13.6,0
		c-1.6,0-0.9-1.5-0.9-2.3c0-0.5,0.5-1.3,1-1.6c0.6-0.3,1.5-0.1,2.4-0.1c0-5.9,0-11.6,0-17.4c-1.8-0.5-2.9,0.2-3.5,1.8
		c-0.4,1.2-0.8,2.5-1,3.9c-0.3,2-1.8,1.3-2.9,1.4c-1.4,0.1-1.3-0.9-1.3-1.8c0-2.5-0.1-5,0.1-7.4c0-0.5,0.7-1.5,1.1-1.5
		C200.2,470.7,208.1,470.7,216.4,470.7z"/>
	<path fill="#FFFFFF" d="M305,411.6c0-1.2,0-2.3,0-3.5c1.3-0.1,2.4-0.2,3.6-0.3c0-5.9,0-11.6,0-17.4c-1.9-0.3-3.1,0.3-3.8,2
		c-0.3,0.7-0.5,1.5-0.6,2.2c-0.8,3.2-0.8,3.2-4.4,2.7c0-3.2-0.1-6.4,0.1-9.6c0-0.3,1.1-0.9,1.7-0.9c5.2-0.1,10.4,0,15.7,0
		c2.1,0,4.2-0.1,6.3,0.1c0.5,0,1.3,0.7,1.3,1.1c0.1,3.1,0.1,6.2,0.1,9.5c-1.3,0-2.5,0-3.6,0c-1.4-2.5-0.2-6.9-5.1-7.1
		c0,5.9,0,11.6,0,17.5c1,0.1,2.1,0.2,3.3,0.3c0,1.1,0,2.2,0,3.5C314.8,411.6,310,411.6,305,411.6z"/>
	<path fill="#FFFFFF" d="M260.1,432.8c-0.9-0.1-1.7-0.1-2.6-0.2c-0.1-0.4-0.2-0.7-0.3-1.1c-0.2-2.8-0.2-2.8,2.7-2.8
		c3.5,0,7,0,10.5,0.1c0.1,0,0.2,0.1,0.5,0.2c0,1.1,0,2.3,0,3.6c-1,0.1-2,0.2-3.3,0.2c0,1.2,0,2.3,0,3.4c0,4,0,8,0,12
		c0,1.3,0.4,1.8,1.7,1.8c4.4,0.1,5-0.3,6.2-4.5c0.9-3,0.9-3,4.4-2.5c0,3.4,0,6.9,0,10.5c-7.5,0-15,0-22.4,0
		c-0.9-3.1-0.6-3.5,2.5-3.9C260.1,444.1,260.1,438.6,260.1,432.8z"/>
	<path fill="#FFFFFF" d="M330.7,408.2c2.9-0.5,2.9-0.5,2.9-3.6c0-4.5,0-9,0-13.6c-1.1-0.1-2-0.2-2.9-0.3c-0.1-0.4-0.2-0.7-0.2-1.1
		c-0.1-2.8-0.1-2.8,2.6-2.8c3.2,0,6.4,0.1,9.6,0c1.4,0,1.7,0.7,1.7,1.9c-0.1,1,0.3,2.4-1.5,2.1c-1.5-0.2-1.8,0.6-1.8,1.9
		c0.1,4.5,0.1,8.9,0,13.4c0,1.3,0.3,2.1,1.8,1.9c1.8-0.2,1.4,1.1,1.5,2.2c0.1,1.2-0.4,1.7-1.6,1.7c-3.2-0.1-6.5,0-9.7,0
		c-2.5,0-2.5,0-2.4-2.5C330.6,408.9,330.7,408.5,330.7,408.2z"/>
	<path fill="#FFFFFF" d="M381.4,428.7c0,1.4,0,2.6,0,3.8c-1,0.1-1.9,0.1-2.9,0.2c0,5.6,0,11.2,0,16.9c1,0.1,1.8,0.2,2.8,0.3
		c0,1.2,0,2.4,0,3.6c-4.5,0-8.9,0-13.3,0c-0.6-3.4-0.6-3.4,2.8-4c0-5.5,0-11.1,0-16.8c-1-0.1-1.8-0.1-2.7-0.2
		c-0.1-0.2-0.2-0.3-0.3-0.5c-0.3-3.4-0.3-3.4,3-3.4C374.4,428.7,377.8,428.7,381.4,428.7z"/>
	<path fill="#FFFFFF" d="M296.4,449.6c3.3,0.4,3.3,0.4,2.9,3.9c-4.4,0-8.8,0-13.4,0c0-1.1,0-2.3,0-3.6c0.9-0.1,1.8-0.2,2.8-0.3
		c0-5.6,0-11.2,0-16.9c-0.9-0.1-1.8-0.1-2.8-0.2c0-1.2,0-2.4,0-3.7c4.4,0,8.8,0,13.3,0c0,1.2,0,2.3,0,3.7c-0.9,0.1-1.8,0.1-2.9,0.2
		C296.4,438.4,296.4,444,296.4,449.6z"/>
	<path fill="#FFFFFF" d="M354.9,491.7c1,0.1,1.8,0.1,2.8,0.2c0,1.2,0,2.4,0,3.9c-2,0-4,0-6,0c-1.7,0-3.4,0-5.2,0
		c-2.4,0-2.4,0-2.3-2.4c0-0.4,0.1-0.9,0.2-1.4c0.9-0.1,1.8-0.1,2.8-0.2c0-5.6,0-11.1,0-16.9c-0.9-0.1-1.8-0.2-2.9-0.3
		c0-1.2,0-2.4,0-3.7c4.5,0,8.9,0,13.4,0c0,1.2,0,2.4,0,3.7c-1,0.1-1.8,0.2-2.8,0.2C354.9,480.4,354.9,485.9,354.9,491.7z"/>
	<path fill="#FFFFFF" d="M291,407.8c1,0.1,1.9,0.2,2.9,0.3c0,1.1,0,2.2,0,3.5c-4.4,0-8.8,0-13.3,0c0-1.1,0-2.2,0-3.5
		c0.9-0.1,1.8-0.2,2.8-0.3c0-5.6,0-11.2,0-16.9c-0.9-0.1-1.8-0.2-2.8-0.3c0-1.2,0-2.4,0-3.9c1.6,0,3.2,0,4.9,0c2.1,0,4.2,0,6.3,0
		c2.4,0,2.4,0,2.3,2.5c0,0.4-0.1,0.9-0.1,1.4c-1,0.1-1.9,0.2-2.9,0.3C291,396.5,291,402.1,291,407.8z"/>
	<path fill="#BA3343" d="M199.6,230.8c-5.9,0-11.7-0.7-17-3.4c-8.4-4.3-11-12.8-6.3-21.1c1.8-3.2,4.2-5.7,7.5-7.3
		c0.6-0.3,1.4-0.4,1.9-0.2c9,3.4,18.1,6.8,27,10.3c1.7,0.7,3.4,1.9,4.7,3.1c4,3.7,3.7,9.8-0.4,13.5c-4,3.5-8.9,4.6-14.1,5.1
		C201.9,230.8,200.7,230.8,199.6,230.8z"/>
	<path fill="#BA3343" d="M201,148c4.4-0.1,8.6,0.6,12.7,2.3c4.2,1.8,7.5,4.6,7.9,9.5c0.4,5.3-1.7,9.2-6.1,12.3
		c-3.3,2.3-6.2,2.8-10.1,1.2c-5.3-2.3-10.8-4.1-16.3-5.8c-7.8-2.4-7.1-12-2.8-15.4c3.5-2.8,7.6-3.6,11.9-4
		C199.1,147.9,200.1,148,201,148z"/>
	<path fill="#BA3343" d="M426.8,212.3c-0.1,4-0.5,8-2.2,11.7c-2.3,4.8-6,7.4-11.4,7.6c-5.7,0.2-10-1.9-12.7-7.1
		c-2.4-4.7-3-9.9-2.4-15c0.4-3.3,1.1-6.7,2.4-9.7c2.3-5.3,6.8-7.3,12.4-7.1c5.4,0.2,9.3,2.6,11.6,7.5
		C426.4,204.1,426.7,208.2,426.8,212.3z"/>
	<path fill="#BA3343" d="M336.3,296.3c0,6.8-5.1,12.1-11.8,12.1c-6.5,0-11.8-5.3-11.8-11.9c0-6.8,5.3-12.4,11.8-12.4
		C331.1,284,336.3,289.5,336.3,296.3z"/>
	<path fill="#BA3343" d="M199.4,302.5c-2.7,0-5,0-7.6,0c1.3-2.8,2.5-5.3,3.8-8.2C196.9,297.2,198.1,299.8,199.4,302.5z"/>
	<path fill="#BA3343" d="M440.5,302.6c-2.5,0-4.8,0-7.3,0c1.2-2.7,2.3-5.2,3.6-8.2C438.1,297.3,439.3,299.8,440.5,302.6z"/>
	<path fill="#BA3343" d="M323.1,477.7c0-3.3,0-3.3,2.1-3.3c3.3,0,4.4,0.8,4.4,3.4c0,2.5-1.2,3.5-4.3,3.5
		C323.1,481.3,323.1,481.3,323.1,477.7z"/>
	<path fill="#BA3343" d="M258.9,390.6c2.1,0.3,4.5-0.8,5.7,1.4c0.6,1.1,0.5,3-0.1,4.1c-1.2,2.1-3.6,1.2-5.6,1.2
		C258.9,395,258.9,392.9,258.9,390.6z"/>
	<path fill="#BA3343" d="M237.9,449.8c0-2.3,0-4.4,0-6.7c2.1,0,4.4-0.8,6,1.3c1,1.3,0.9,3-0.1,4.3
		C242.3,450.5,240,449.6,237.9,449.8z"/>
	<path fill="#BA3343" d="M237.9,438.8c0-2.1,0-4,0-6.1c1.9,0.1,4.1-0.7,5.4,1.2c0.6,0.9,0.5,2.8-0.1,3.7
		C241.9,439.5,239.8,438.9,237.9,438.8z"/>
	<path fill="#BA3343" d="M289.4,483.1c0.4-2.3,0.6-4.3,1.1-6.2c0.5-1.8,1.8-2.9,3.7-3c2.1-0.1,3.7,0.6,4.5,2.5
		c1.7,4.6,1.7,9.2,0.1,13.8c-0.6,1.8-2.1,2.4-4,2.4c-2,0-3.6-1-4.1-2.8C290,487.6,289.8,485.2,289.4,483.1z"/>
	<path fill="#BA3343" d="M176.7,440.5c0-2.7,0-5.2,0-7.8c1.9,0,3.9-0.7,5.1,1.1c1.1,1.6,1,3.6,0.2,5.3
		C181,441.2,178.8,440.5,176.7,440.5z"/>
</g>
</svg>
