<?xml version="1.0" encoding="utf-8"?>
<!-- Generator: Adobe Illustrator 18.1.1, SVG Export Plug-In . SVG Version: 6.00 Build 0)  -->
<!DOCTYPE svg PUBLIC "-//W3C//DTD SVG 1.1//EN" "http://www.w3.org/Graphics/SVG/1.1/DTD/svg11.dtd">
<svg version="1.1" id="Layer_1" xmlns="http://www.w3.org/2000/svg" xmlns:xlink="http://www.w3.org/1999/xlink" x="0px" y="0px"
	 viewBox="0 98 612 598" enable-background="new 0 98 612 598" xml:space="preserve">
<path fill="#FFFFFF" d="M34.7,400.2c0.2-150.6,122.9-273.6,274.8-272.4c149.2,1.1,271.3,123.1,270.3,274.5
	c-1,149.4-123.3,271.7-274.9,270.5C155.9,671.6,34.9,550.1,34.7,400.2z M567.5,400.4c-0.3-143.5-115.9-259.3-258.4-260.2
	c-144.6-1-261.7,115.8-262,259.5c-0.3,144.2,116.6,261,260.6,260.7C451.1,660.1,567.1,543.9,567.5,400.4z"/>
<path fill="#FFFFFF" d="M170.5,289c-2.6-1.9-5.2-3.6-7.5-5.6c-7.1-6.2-9.4-14-8.1-23.2c1.8-12.3,8.8-20.5,20.4-24.4
	c16.7-5.7,33.6-5.7,50.3,0.1c2.7,0.9,5.3,2.4,7.8,4c10.4,6.9,11.6,19.1,8.4,26.5c-2.2,5.1-6.4,8.1-11.2,10.4
	c-1.5,0.8-3.1,1.4-4.9,2.1c2,1,3.8,1.8,5.6,2.7c8.1,4.2,14.5,10.1,16.6,19.3c2.6,11.3,1.2,22-7,30.8c-5.4,5.8-12.4,8.8-19.9,10.7
	c-10.5,2.7-21.1,2.9-31.8,2.1c-7.6-0.6-15-1.9-22-5.1c-8.5-3.8-14.7-9.8-16.1-19.4c-1.9-13.2,2.6-23.6,15.6-29.6
	C167.9,290.1,169.2,289.5,170.5,289z M199.6,328.8c1.1,0,2.3,0.1,3.4,0c5.1-0.5,10.1-1.6,14.1-5.1c4.2-3.6,4.4-9.8,0.4-13.5
	c-1.4-1.3-3-2.5-4.7-3.1c-9-3.5-18-6.9-27-10.3c-0.5-0.2-1.4,0-1.9,0.2c-3.3,1.6-5.7,4.2-7.5,7.3c-4.7,8.2-2.2,16.8,6.3,21.1
	C187.9,328,193.7,328.7,199.6,328.8z M201,246c-1,0-1.9-0.1-2.9,0c-4.3,0.4-8.4,1.2-11.9,4c-4.3,3.4-5,13,2.8,15.4
	c5.5,1.7,11.1,3.5,16.3,5.8c3.8,1.7,6.7,1.2,10.1-1.2c4.4-3.1,6.5-7,6.1-12.3c-0.4-4.9-3.7-7.7-7.9-9.5
	C209.7,246.5,205.4,245.9,201,246z"/>
<path fill="#FFFFFF" d="M279.5,319.7c7.9-4.9,16.6-6.3,25.7-5.4c5.8,0.6,11.4,2.3,17.2,3.4c2.7,0.5,5.4,1,8.1,1c4,0,6-2.2,5.9-6.3
	c0-0.9-0.2-1.8-0.4-2.6c-1.1-5,1.6-8.7,6.6-9.3c1.4-0.2,2.8-0.1,4.2,0c3.7,0.5,5.8,2.6,6.3,6.8c0.9,7.1,0.6,14.1-1.6,21
	c-2.9,9.4-9.7,14.3-19.1,15.9c-9.9,1.7-19.2-0.2-28.3-3.9c-3.6-1.5-7.3-3-11-4.2c-4-1.4-7.8-0.7-11.3,1.7c-1.5,1-2.9,2.3-4.3,3.5
	c-4.3,3.7-9,4.8-14.4,2.7c-4.3-1.7-6.4-4.9-6.8-9.5c-1.2-13.1,4-23.4,14.5-30.7c6.8-4.8,14.2-8.6,21.4-12.8
	c4.6-2.7,9.3-5.3,13.7-8.2c4.6-3,8.4-6.9,10-12.4c3.3-11.1-3.6-21.6-15.4-23.5c-7.8-1.3-14.9,0.1-21.2,5.1c-2.5,2-4.3,4.5-5.3,7.7
	c1.9-0.3,3.7-0.6,5.5-0.8c7.8-0.9,14,7.3,12.8,14.9c-1.1,7-5.7,11.2-13.1,12c-3.9,0.4-7.8,0.4-11.5-1.2c-6.8-3-10.3-8.5-10.6-15.7
	c-0.6-14.8,6.6-24.8,19.5-31.1c10.4-5,21.4-6.5,32.9-5.7c7.3,0.5,14.4,2,21,5.1c10,4.8,16.7,12.2,18.6,23.3
	c1.6,9.9,0.5,19.3-6.2,27.4c-3.8,4.6-8.7,7.7-14.2,9.7c-7.8,2.8-15.9,5-23.7,7.7c-5.5,1.9-11,4.1-16.3,6.5
	C285.1,313.4,281.9,316.2,279.5,319.7z"/>
<path fill="#FFFFFF" d="M430.1,247.1c-2.6-0.6-5.1-1.7-7.7-1.8c-13.6-0.7-23.5,7.5-25.6,21c-0.4,2.2-0.7,4.4-0.7,6.6
	c-0.1,3.5,0,7.1,0,10.9c0.8-0.5,1.4-0.8,1.9-1.2c8.3-5.8,17.7-7,27.5-6.5c7.2,0.4,14.1,2.1,20.2,6.1c10.9,7.2,15.1,17.5,13.9,30.2
	c-1.3,14.5-9.8,23.7-23.1,28.5c-15.1,5.5-30.5,5.3-45.6-0.1c-13.5-4.9-21.9-14.9-25.4-28.6c-4.4-17.2-3.5-34.4,3.2-50.9
	c6.7-16.4,19.5-25.5,36.7-28.5c11.6-2.1,22.9-1.5,33.9,3c4.5,1.9,8.7,4.3,11.9,8c4.8,5.6,5.2,11.8,2.6,18.4c-1,2.6-3,4.6-5.6,5.7
	c-5.1,2.3-10.4,2.8-15.8,1.2c-6.9-2.1-10.3-8.5-8.3-15.1c0.7-2.4,1.8-3.5,5.8-6.3C430,247.5,430,247.3,430.1,247.1z M426.8,310.3
	c-0.1-4.2-0.5-8.3-2.3-12.1c-2.3-4.9-6.2-7.4-11.6-7.5c-5.6-0.2-10.1,1.8-12.4,7.1c-1.3,3-2,6.4-2.4,9.7c-0.6,5.2-0.1,10.3,2.4,15
	c2.6,5.1,7,7.3,12.7,7.1c5.4-0.2,9.1-2.8,11.4-7.6C426.3,318.3,426.7,314.3,426.8,310.3z"/>
<path fill="#FFFFFF" d="M324.7,370.4c12.9,0,23.2,10.7,23.2,24.1c0,13.3-10.3,23.8-23.3,23.8c-13,0.1-23.4-10.6-23.4-23.9
	C301.2,381.1,311.6,370.4,324.7,370.4z M336.3,394.3c0-6.8-5.3-12.3-11.8-12.3s-11.9,5.6-11.8,12.4c0,6.6,5.3,11.9,11.8,11.9
	C331.2,406.4,336.4,401.1,336.3,394.3z"/>
<path fill="#FFFFFF" d="M148.5,394.2c0-1.1,0-1.7,0-2.4c0-6,0-12,0-18c0-2.4,0.4-2.8,2.8-2.8c2,0,4.1,0,6.1,0c2.4,0,2.8,0.4,2.8,2.8
	c0,13.8,0,27.6,0,41.4c0,1.2,0.1,2.6-1.4,2.8c-1.1,0.1-2.6-0.2-3.4-0.9c-2.9-2.6-5.7-5.5-8.5-8.3c-4.8-4.8-9.6-9.5-14.4-14.3
	c-0.3-0.3-0.7-0.6-1.3-1.2c0,0.9-0.1,1.5-0.1,2.1c0,6.3,0,12.6,0,18.9c0,2.6-0.5,3.1-3.1,3.1c-1.8,0-3.6,0-5.3,0
	c-2.8,0-3.2-0.4-3.2-3.2c0-9.2,0-18.3,0-27.5c0-4.3-0.2-8.7-0.1-13c0-1.1,0.4-2.8,1.2-3.3c1.4-0.9,2.9-0.2,4.2,1
	c7.4,7.1,14.9,14.2,22.4,21.3C147.5,393.3,147.8,393.6,148.5,394.2z"/>
<path fill="#FFFFFF" d="M374.2,393.5c0,7.2,0,14,0,20.8c0,2.8-0.4,3.2-3.2,3.2c-1.9,0-3.8,0-5.7,0c-1.6,0-2.4-0.7-2.4-2.3
	c0-14.1-0.1-28.3,0-42.4c0-0.8,0.6-2.2,1.1-2.3c1-0.2,2.6-0.1,3.3,0.6c2.7,2.3,5.1,4.9,7.7,7.4c4.9,4.8,9.7,9.6,14.6,14.4
	c0.3,0.3,0.6,0.6,1.3,1.1c0-3.2,0-6.1,0-9c0-3.9,0-7.8,0-11.7c0-1.6,0.7-2.4,2.3-2.3c2.2,0,4.3,0,6.5,0c2.1,0,2.5,0.5,2.5,2.7
	c0,9.1,0,18.2,0,27.3c0,4.8,0,9.6,0,14.3c0,1.1,0,2.2-1.3,2.7s-2.5,0.1-3.5-0.9c-5.5-5.7-11-11.4-16.5-17
	C378.9,398,376.7,395.9,374.2,393.5z"/>
<path fill="#FFFFFF" d="M212.7,417.6c-4.5,1.2-6.7-1.1-7.9-5c-0.4-1.4-1.3-1.8-2.7-1.8c-4.5,0.1-8.9,0.1-13.4,0
	c-1.2,0-1.8,0.4-2.3,1.5c-2.6,5.7-1.7,5.3-8.3,5.3c-0.8,0-1.7,0-2.5,0c-2.8,0-3.5-1-2.3-3.5c3.4-7.2,6.8-14.5,10.2-21.7
	c3.1-6.7,6.3-13.3,9.4-20c0.5-1.1,1.1-2,2.5-2s2,0.8,2.5,1.9c6.6,14,13.2,27.9,19.8,41.9c1.1,2.3,0.4,3.4-2.1,3.4
	C214.7,417.6,213.7,417.6,212.7,417.6z M199.4,400.5c-1.3-2.8-2.5-5.3-3.8-8.2c-1.3,2.9-2.5,5.4-3.8,8.2
	C194.4,400.5,196.7,400.5,199.4,400.5z"/>
<path fill="#FFFFFF" d="M453.3,417.6c-0.1,0-0.1,0-0.2,0c-3.9,0.7-6.3-0.9-7.3-4.8c-0.4-1.6-1.4-2.1-3.1-2.1
	c-4.1,0.1-8.3,0.1-12.4,0c-1.2,0-1.8,0.4-2.3,1.5c-2.6,5.9-1.8,5.3-8.2,5.3c-0.8,0-1.7,0-2.5,0c-2.3,0-3-1.1-2.1-3.2
	c1.6-3.7,3.4-7.4,5-11.1c4.6-10.2,9.2-20.4,13.9-30.6c0.5-1.1,0.9-2.3,2.6-2.3s2.1,1.2,2.6,2.3c6.2,13.5,12.3,27.1,18.5,40.6
	c1.6,3.5,1.1,4.3-2.7,4.3C454.6,417.6,453.9,417.6,453.3,417.6z M440.5,400.6c-1.2-2.7-2.4-5.3-3.7-8.2c-1.3,2.9-2.4,5.5-3.6,8.2
	C435.7,400.6,438,400.6,440.5,400.6z"/>
<path fill="#FFFFFF" d="M307.2,454.6c-15.9,0-31.8,0-47.8,0c-0.8,0-1.7,0-2.5-0.2c-1.8-0.5-2.9-2-2.9-3.8s1.1-3.3,2.9-3.7
	c0.8-0.2,1.6-0.3,2.4-0.3c31.8,0,63.7,0,95.5,0c0.7,0,1.4,0,2.1,0.2c2.2,0.5,3.5,2.1,3.3,4.2c-0.1,1.9-1.7,3.5-3.8,3.7
	c-0.6,0.1-1.3,0-1.9,0C338.9,454.6,323.1,454.6,307.2,454.6z"/>
<path fill="#FFFFFF" d="M235.4,381.9c-3.1,0-5.8,0-8.6,0c-2.7,0-3.2-0.6-3.2-3.3c0-1.8,0-3.6,0-5.3c0-1.6,0.8-2.3,2.4-2.3
	c10.2,0,20.5,0,30.7,0c1.8,0,2.5,0.9,2.5,2.6c0,1.8,0,3.7,0,5.5c0,2-0.7,2.7-2.8,2.8c-2.9,0-5.8,0-9,0c0,0.9-0.1,1.7-0.1,2.5
	c0,9.9,0,19.9,0,29.8c0,3-0.4,3.4-3.4,3.4c-1.8,0-3.6,0-5.3,0c-2.4,0-3-0.6-3-3c0-9.9,0-19.9,0-29.8
	C235.4,383.9,235.4,383.1,235.4,381.9z"/>
<path fill="#FFFFFF" d="M481.1,406.7c4.7,0,9.2,0,13.7,0c2.6,0,3,0.4,3,3c0,1.8,0,3.7,0,5.5c0,1.6-0.7,2.3-2.3,2.3
	c-8,0-15.9,0-23.9,0c-1.8,0-2.3-0.8-2.4-2.9c0-11.1,0-22.2,0-33.2c0-2.6,0-5.2,0-7.8c0-1.7,0.7-2.6,2.5-2.5c2.1,0.1,4.2,0,6.3,0
	c2.5,0,2.9,0.4,2.9,2.9c0,10.1,0,20.1,0,30.2C481,404.9,481.1,405.7,481.1,406.7z"/>
<path fill="#FFFFFF" d="M228.9,488.8c1.3,4.5,2.5,9,3.7,13.4c0.1,0,0.3,0,0.4,0c1.2-4.5,2.4-8.9,3.6-13.5c-1.1-0.1-1.9-0.2-2.9-0.2
	c-0.1-0.5-0.2-0.9-0.2-1.4c-0.1-2.4,0-2.4,2.4-2.4c1.8,0,3.7,0.1,5.5,0c1.9-0.2,2.8,0.4,2.4,2.4c-0.1,0.4-0.1,0.9-0.1,1.3
	c-3,0.8-3,0.8-4,4c-1.6,5.2-3.2,10.4-4.7,15.7c-0.4,1.4-0.9,1.9-2.5,1.9c-5.2-0.1-5.2,0-6.7-4.9c-0.7-2.4-1.4-4.7-2.3-7.6
	c-1.4,3.8-2.7,7.1-3.9,10.6c-0.5,1.5-1.2,1.9-2.7,1.9c-5-0.1-5,0-6.4-4.8c-1.3-4.5-2.7-9-3.9-13.5c-0.5-2-1-3.7-3.8-2.9
	c0-1.4,0-2.6,0-3.9c4.4,0,8.7,0,13.3,0c0,1.2,0,2.3,0,3.6c-0.7,0.1-1.3,0.1-2.3,0.2c1.2,4.6,2.4,9.1,3.6,13.6c0.1,0,0.3,0.1,0.4,0.1
	c1.1-3,2.3-6,3.4-9c0.2-0.7,0.5-1.5,0.4-2.2c-0.3-1.6-0.5-3.5-2.9-2.7c-0.2-0.3-0.3-0.4-0.3-0.5c-0.3-3.5-0.3-3.5,3.2-3.5
	c2.4,0,4.8,0,7.3,0s2.5,0,2.5,2.5c0,0.4-0.1,0.7-0.1,1.2C230.5,488.6,229.8,488.7,228.9,488.8z"/>
<path fill="#FFFFFF" d="M286,394.4c0,6.7,0,13.5,0,20.2c0,2.5-0.5,3-3,3c-2,0-4.1,0-6.1,0c-1.8,0-2.6-0.7-2.6-2.5
	c0-13.9,0-27.7,0-41.6c0-1.8,0.8-2.5,2.6-2.5c2.2,0.1,4.5,0.1,6.7,0c1.8,0,2.5,0.8,2.5,2.5C285.9,380.5,286,387.4,286,394.4z"/>
<path fill="#FFFFFF" d="M335.4,530.8c-0.9-0.1-1.8-0.1-2.7-0.2c-0.1-0.6-0.1-1.1-0.2-1.7c-0.3-1.8,0.5-2.3,2.2-2.2
	c3,0.1,6.1,0,9.2,0c2.5,0,2.5,0,2.4,2.6c0,0.4-0.1,0.7-0.1,1.2c-0.5,0.1-1,0.1-1.5,0.2c-0.4,0-0.9,0-1.7,0c0,1.8,0,3.6,0,5.3
	c0,0.3,0.6,0.9,1,0.9c2.4,0.1,4.8,0,7.4,0c0-2.1,0-4,0-6.1c-0.9-0.1-1.9-0.1-2.9-0.2c0-1.3,0-2.4,0-3.7c4.5,0,8.8,0,13.4,0
	c0,1.2,0,2.4,0,3.7c-0.9,0.1-1.8,0.1-2.8,0.2c0,5.6,0,11.2,0,16.9c0.9,0.1,1.7,0.2,2.8,0.3c0,1.2,0,2.4,0,3.6c-4.4,0-8.8,0-13.2,0
	c-0.7-3.4-0.7-3.5,2.8-4c0-2.2,0-4.4,0-6.9c-2.4,0-4.9,0-7.4,0c-0.4,0-1,0.7-1,1c-0.1,1.9,0,3.8,0,5.6c3.6,0.9,3.6,0.9,3,4.1
	c-4.4,0-8.8,0-13.2,0c-0.9-3.2-0.6-3.6,2.6-4C335.4,542.1,335.4,536.5,335.4,530.8z"/>
<path fill="#FFFFFF" d="M315.6,572.9c-3.2-0.5-3.2-0.5-2.7-4c0.4-0.1,0.9-0.2,1.4-0.2c4.7,0,9.4-0.1,14.1,0.1
	c1.9,0.1,3.8,0.6,5.5,1.2c2.3,0.9,3.5,2.7,3.5,5.2c-0.1,2.6-1.5,4.3-3.9,5.1c-1,0.3-1.9,0.6-3.2,1c5.4,0.4,6,4.3,6,8.7
	c0.3-0.1,0.6-0.1,0.9-0.2c0.4-0.8,0.7-1.8,1.3-2.2c0.6-0.3,1.6,0.1,2.4,0.1c-0.1,4-2.4,6.4-6,6.4c-4.1,0-6.2-1.9-6.3-5.9
	c0-0.2,0-0.4,0-0.6c0-4.3-0.7-4.9-5.3-4.5c0,2.1,0,4.2,0,6.4c0.3,0.1,0.6,0.1,0.9,0.1c2,0.1,3,1.4,2.1,3.3c-0.2,0.4-1,0.6-1.5,0.6
	c-3.5,0.1-7,0-10.5,0.1c-1.4,0-1.7-0.6-1.7-1.8c0.1-1.1-0.2-2.3,1.5-2.1c0.4,0,0.9-0.1,1.4-0.1C315.6,584,315.6,578.5,315.6,572.9z
	 M323.1,575.7c0,3.6,0,3.6,2.1,3.6c3.1,0,4.3-1,4.3-3.5s-1.1-3.4-4.4-3.4C323.1,572.4,323.1,572.4,323.1,575.7z"/>
<path fill="#FFFFFF" d="M248.4,488.6c0-1.3,0-2.4,0-3.6c0.4-0.1,0.7-0.2,1-0.2c5.3,0.1,10.7,0.1,16,0.3c1.4,0.1,2.9,0.6,4.2,1.2
	c2.1,1,3.4,2.7,3.3,5.1c0,2.5-1.4,4.1-3.7,5.1c-0.9,0.3-1.8,0.6-3.2,1.1c4,0.7,5.6,2.9,5.7,6.4c0,0.6,0.4,1.2,0.7,1.8
	c0.4-0.5,0.9-1,1.3-1.6c0.2-0.2,0.3-0.4,0.5-0.7c0.8,0.2,1.5,0.5,2.3,0.7c-0.3,5.4-5.3,8.1-9.8,5.5c-1.9-1.1-2.4-3-2.6-5
	c0-0.4,0-0.8,0-1.1c0-4.1-0.8-4.7-5.1-4c0,2,0,4.1,0,6.3c0.9,0.1,1.9,0.2,2.9,0.3c0,1.2,0,2.3,0,3.5c-4.4,0-8.8,0-13.4,0
	c0-1.1,0-2.3,0-3.4c2.8-0.7,2.8-0.7,2.8-3.7c0-3.6,0-7.1,0-10.7C251.3,488.9,251.3,488.9,248.4,488.6z M258.9,488.6
	c0,2.3,0,4.4,0,6.8c2-0.1,4.3,0.9,5.6-1.2c0.6-1.1,0.7-3,0.1-4.1C263.5,487.7,261,488.9,258.9,488.6z"/>
<path fill="#FFFFFF" d="M384.2,585.5c0-4.6,0-8.6,0-12.5c-3.5-0.8-3.6-0.8-2.8-4.1c3.2,0,6.4,0,9.7,0c0,1.3,0,2.4,0,3.7
	c-0.9,0.1-1.7,0.2-2.7,0.2c0,1.7,0,3.2,0,4.8c0,4.8,0,9.6,0,14.3c0,1.5-0.4,1.9-2,2.2c-4.3,0.6-7-0.8-8.8-5c-2-4.6-4.8-8.8-7.6-13.6
	c0,5,0,9.5,0,14.1c0.9,0.1,1.8,0.2,2.8,0.3c0,1.2,0,2.3,0,3.6c-3.1,0-6.3,0-9.6,0c0-1.1,0-2.3,0-3.6c0.8-0.1,1.6-0.2,2.5-0.3
	c0-5.6,0-11.1,0-16.8c-0.8-0.1-1.6-0.2-2.6-0.3c0-1.2,0-2.4,0-3.8c3.7,0,7.4,0,11,0.1c0.4,0,1,0.7,1.3,1.2c2.5,4.4,5,8.8,7.5,13.3
	C383.2,583.9,383.6,584.5,384.2,585.5z"/>
<path fill="#FFFFFF" d="M390.1,530.8c-0.9-0.1-1.7-0.1-2.6-0.2c-0.1-0.4-0.2-0.7-0.2-1.1c-0.1-2.8-0.1-2.8,2.6-2.8
	c2.5,0,5.1,0.1,7.6,0c1.2,0,1.8,0.4,2.4,1.4c2.5,4.5,5.1,9,7.6,13.4c0.3,0.5,0.6,1,1,1.7c0-4.4,0-8.4,0-12.5c-1-0.1-1.9-0.1-2.7-0.2
	c-0.1-0.2-0.2-0.3-0.2-0.4c-0.3-3.5-0.3-3.5,3.1-3.5c2.2,0,4.4,0,6.8,0c0,1.4,0,2.5,0,3.8c-0.9,0.1-1.7,0.1-2.8,0.2c0,7,0,14,0,21.2
	c-2.6,0-4.9,0.1-7.2-0.1c-0.5,0-1.1-0.9-1.5-1.5c-3.2-5.5-6.3-11-9.6-16.9c0,4.9,0,9.4,0,14c3.2,0.9,3.2,0.9,2.9,4.2
	c-3.1,0-6.1,0.1-9.2-0.1c-0.3,0-0.7-1.3-0.7-2c0-0.6,0.4-1.4,0.9-1.7c0.4-0.3,1.2-0.2,1.9-0.2C390.1,542,390.1,536.5,390.1,530.8z"
	/>
<path fill="#FFFFFF" d="M375.4,510.1c-2.6,0-4.9,0.1-7.1-0.1c-0.6,0-1.2-0.8-1.5-1.4c-3.1-5.4-6.2-10.9-9.6-16.8c0,4.9,0,9.4,0,14
	c0.9,0.1,1.8,0.2,2.8,0.3c0,1.1,0,2.2,0,3.5c-3.3,0-6.5,0-9.8,0c0-1.1,0-2.2,0-3.3c0.1-0.1,0.2-0.2,0.3-0.2c2.5-0.3,2.5-0.3,2.5-2.9
	c0-3.8,0-7.6,0-11.5c0-2.8,0-2.8-2.7-3.1c-0.1-0.2-0.2-0.4-0.2-0.6c-0.2-3.2-0.2-3.2,3-3.2c2.3,0,4.6,0.1,6.9,0
	c1.3-0.1,2.1,0.4,2.7,1.6c2.6,4.7,5.3,9.4,8,14.1c0.2,0.3,0.4,0.6,0.8,1.2c0-4.4,0-8.5,0-12.7c-1-0.1-1.9-0.2-2.9-0.3
	c0-1.3,0-2.4,0-3.9c3,0,5.9-0.1,8.8,0c1.5,0,1,1.3,1.1,2.2c0,0.8,0.2,1.8-1.1,1.8c-0.6,0-1.1,0.1-1.8,0.2
	C375.4,495.9,375.4,502.8,375.4,510.1z"/>
<path fill="#FFFFFF" d="M227.6,551.7c-0.6-3.6-0.6-3.6,2.7-4.1c0-5.5,0-11.1,0-16.8c-0.9-0.1-1.7-0.1-2.7-0.2
	c-0.1-0.4-0.2-0.7-0.2-1.1c-0.1-2.8-0.1-2.8,2.7-2.8c4.8,0.1,9.7,0.2,14.5,0.4c1.2,0.1,2.4,0.5,3.5,1c2,0.9,3.1,2.5,3.1,4.8
	c0,2.3-1.2,3.8-3.2,4.8c-0.8,0.4-1.8,0.7-2.7,1c1,0.3,1.9,0.5,2.8,0.9c2.2,0.8,3.6,2.3,3.8,4.7c0.2,2.6-0.7,4.7-3.1,5.8
	c-1.5,0.7-3.2,1.4-4.9,1.4C238.5,551.8,233.1,551.7,227.6,551.7z M237.9,547.8c2.1-0.1,4.4,0.8,5.9-1.2c1-1.3,1.1-3,0.1-4.3
	c-1.5-2.1-3.8-1.3-6-1.3C237.9,543.3,237.9,545.4,237.9,547.8z M237.9,536.8c1.9,0,4,0.7,5.2-1.2c0.6-0.9,0.7-2.8,0.1-3.7
	c-1.2-1.9-3.4-1.2-5.4-1.2C237.9,532.9,237.9,534.7,237.9,536.8z"/>
<path fill="#FFFFFF" d="M400.3,500.6c-1.1,0-2.2-0.1-3.5-0.2c0-1.2,0-2.4,0-3.9c1.9,0,3.7,0,5.6,0s3.8,0,5.7,0c2.5,0,2.5,0,2.4,2.6
	c0,0.4-0.1,0.7-0.1,1.3c-0.8,0.1-1.5,0.2-2.5,0.3c0,3,0,6.1,0,9.1c-3.6,0.8-3.7,0.8-5.7-2.9c-2.2,3.5-5.5,4.1-9.2,3.4
	c-4.2-0.8-7.1-3.2-8.7-7.2c-3.2-8,0.8-16.6,8.7-18.5c3.4-0.8,6.6-0.2,9.2,2.3c0.9-0.8,0.3-2.6,2.2-2.6c3,0,3-0.1,3,2.9
	c0,1.8,0,3.7,0,5.5c0,1.1-0.4,1.6-1.5,1.5c-0.3,0-0.5,0-0.8,0c-2.1,0.3-3.5-0.1-4.2-2.6c-0.7-2.6-2.8-3.8-4.8-3.6
	c-2,0.2-4,1.7-4.3,4.3c-0.4,3.4-0.1,6.8-0.1,10.2c0,0.2,0.1,0.4,0.2,0.5c1,2.6,3.1,3.9,5.2,3.4C399.7,505.7,400.7,503.7,400.3,500.6
	z"/>
<path fill="#FFFFFF" d="M414.5,570.8c1.1-2.8,1.1-2.8,4.7-2.4c0,3.1,0,6.3,0,9.7c-1.4,0-2.8,0.1-4.2-0.1c-0.5,0-1-0.6-1.2-1.1
	c-0.5-0.9-0.8-1.9-1.3-2.8c-2-3.3-6.2-3.2-7.8,0.2c-2,4.4-1.9,8.9-0.1,13.3c0.8,1.9,2.7,2.8,4.7,2.4c1.9-0.3,2.7-1.7,3-3.4
	c0.1-0.6,0.2-1.2,0.3-2.1c-0.7,0-1.3-0.1-1.9-0.1c-2,0-3-1.5-2.1-3.4c0.1-0.3,0.7-0.6,1-0.6c4.2,0,8.4,0,12.5,0
	c0.7,3.4,0.6,3.7-2.2,4.3c0,2.3,0.1,4.7,0,7.1c0,0.7-0.6,2-1,2c-1.3,0.1-3,0.9-3.7-1.2c-0.2-0.6-0.5-1.2-0.6-1.5
	c-1.7,1-3.3,2.4-5.1,2.8c-6.4,1.3-12.2-2.4-13.6-8.9c-1.2-5.2-0.3-10,3.8-13.8C402.9,568.2,409.5,566.3,414.5,570.8z"/>
<path fill="#FFFFFF" d="M439.6,528.7c1.1-2.7,1.2-2.8,4.8-2.1c0,3.1,0,6.2,0,9.6c-1.5,0-3,0.1-4.5,0c-0.3,0-0.7-0.6-0.9-1
	c-0.6-1.1-1-2.4-1.7-3.4c-1.9-2.5-5.3-2.4-7.1,0.2c-2.2,3.2-2.2,11.1-0.1,14.3c1.2,1.8,3.2,2.6,5.1,1.9c1.8-0.6,2.6-2.5,2.5-5.3
	c-1.2-0.2-2.7-0.1-3.7-0.8c-0.5-0.3-0.1-2-0.1-3.4c2.3,0,4.5,0,6.8,0c2.2,0,4.5,0,6.8,0c0,1.3,0,2.5,0,3.9c-0.7,0.1-1.4,0.1-2.4,0.2
	c0,2.4,0.1,4.8,0,7.2c0,0.8,0.7,2.2-1,2.2c-1.3,0-3,0.8-3.7-1.3c-0.2-0.6-0.5-1.2-0.8-1.9c-3.3,4.3-7.5,4.4-11.8,2.6
	c-4.7-1.9-6.7-5.8-7.1-10.7c-0.3-4.5,0.9-8.5,4.4-11.5C429.2,525.5,434.3,525.3,439.6,528.7z"/>
<path fill="#FFFFFF" d="M307.8,581.2c0,7.9-5.4,13.4-13.1,13.2c-7.9-0.1-13-5.4-13-13.2c0-7.7,5.5-13.1,13.1-13.2
	C302.6,568,307.8,573.3,307.8,581.2z M289.4,581.1c0.4,2.1,0.6,4.5,1.3,6.7c0.6,1.8,2.1,2.8,4.1,2.8c1.8,0,3.3-0.6,4-2.4
	c1.6-4.6,1.7-9.2-0.1-13.8c-0.7-2-2.4-2.7-4.5-2.5c-2,0.1-3.3,1.2-3.7,3C290,576.8,289.8,578.8,289.4,581.1z"/>
<path fill="#FFFFFF" d="M310.4,549.7c-0.2,2.4-1.6,3.1-3.6,2.6c-0.4-0.1-1.1-0.7-1.1-1.1c-0.1-2.7-0.1-5.4-0.1-8.4
	c1.2,0,2.3-0.1,3.3,0.1c0.5,0.1,1,0.7,1.2,1.2c1.6,3.5,3.8,4.8,7.5,4.5c1.5-0.1,2.8-0.6,3.1-2.3c0.3-1.8-1.1-2.2-2.4-2.6
	c-2.3-0.6-4.6-1.1-6.8-1.9c-4.4-1.5-6.1-4.1-5.6-8.5c0.4-3.5,3.6-6.5,7.5-7c3.3-0.4,4.8,0,7.8,2.1c0.4-2.9,2.5-2.1,4.5-2
	c0,2.9,0,5.8,0,8.6c-2.8,0.8-3.5,0.6-4.8-1.9c-1.5-2.7-4.1-3.9-6.7-2.8c-0.8,0.4-1.8,1.4-1.9,2.2c-0.1,0.6,0.9,1.8,1.6,2.1
	c1.7,0.7,3.5,1,5.3,1.6c1.2,0.3,2.3,0.7,3.4,1.1c2.5,1,4.1,2.8,4.4,5.5c0.3,3.2-0.5,6-3.4,7.8c-3.8,2.4-7.8,2.4-11.8,0.1
	c-0.3-0.2-0.5-0.4-0.8-0.6C311.1,550.1,310.9,550,310.4,549.7z"/>
<path fill="#FFFFFF" d="M198.1,530.8c-1-0.1-1.9-0.1-2.8-0.2c0-1.3,0-2.4,0-3.7c4.5,0,9,0,13.5,0c0,1.3,0,2.5,0,3.8
	c-1,0.1-1.9,0.1-3,0.2c0,4.6-0.2,9.1,0.1,13.6c0.1,2.5,2.1,3.5,5.1,3.4c2.7-0.1,4.4-1.5,4.5-4.2c0.2-4.2,0-8.4,0-12.8
	c-0.9-0.1-1.8-0.1-2.7-0.2c-0.1-0.4-0.2-0.8-0.2-1.3c-0.1-2.6-0.1-2.6,2.6-2.6c2.4,0,4.8,0,7.4,0c0,1.4,0,2.5,0,3.8
	c-0.8,0.1-1.6,0.2-2.6,0.3c0,1.3,0,2.6,0,4c0,2.7,0.1,5.5,0,8.2c-0.1,5.1-3,8.5-8,9.1c-2.3,0.3-4.8,0.1-7.1-0.4
	c-4.3-1-6.4-3.9-6.5-8.3c-0.1-3.5,0-7,0-10.5C198.2,532.3,198.1,531.6,198.1,530.8z"/>
<path fill="#FFFFFF" d="M179.7,551.6c-4.5,0-8.9,0-13.4,0c0-1.2,0-2.3,0-3.6c0.9-0.1,1.9-0.2,2.9-0.3c0-5.6,0-11.1,0-16.8
	c-0.9-0.1-1.8-0.1-2.8-0.2c0-1.2,0-2.4,0-3.6c0.1-0.1,0.2-0.2,0.3-0.2c5.5,0.1,11.1-0.1,16.6,0.4c5.4,0.4,8.1,4.6,6.9,9.5
	c-0.7,2.8-2.6,4.3-5.2,5c-1.3,0.4-2.6,0.6-3.9,0.7c-1.3,0.1-2.7,0-4.2,0c0,1.7,0,3.4,0,5c0.9,0.3,2.3,0.3,2.8,0.9
	C180.1,549.1,179.7,550.4,179.7,551.6z M176.7,538.5c2.1-0.1,4.2,0.7,5.3-1.5c0.9-1.7,1-3.7-0.2-5.3c-1.3-1.8-3.3-1.1-5.1-1.1
	C176.7,533.4,176.7,535.8,176.7,538.5z"/>
<path fill="#FFFFFF" d="M240.7,572.8c-0.9-0.1-1.7-0.1-2.6-0.2c0-1.2,0-2.4,0-3.7c3.2,0,6.4,0,9.6,0c0.9,3.3,0.6,3.7-2.5,4
	c0,0.5-0.1,1.1-0.1,1.6c0,3.3,0,6.6,0,9.9c0.1,6.2-3.6,10-10.6,10c-1.6,0-3.2-0.3-4.7-0.7c-4-1.1-6.3-4.1-6.3-8.3
	c0-4.1,0-8.3,0-12.6c-1-0.1-1.9-0.2-2.9-0.3c0-1.3,0-2.4,0-3.8c4.3,0,8.5,0,12.8,0c1.5,0,0.9,1.3,0.9,2.1c-0.1,0.6-0.5,1.5-1,1.8
	s-1.3,0.1-2.2,0.1c0,4.6-0.2,9,0.1,13.4c0.2,2.6,2,3.6,4.7,3.6s4.6-1.2,4.8-3.7C240.9,581.7,240.7,577.3,240.7,572.8z"/>
<path fill="#FFFFFF" d="M268.2,589.7c1.2,0.1,2.2,0.1,3.4,0.2c0,1.2,0,2.4,0,3.7c-4.8,0-9.5,0-14.4,0c0-1.2,0-2.4,0-3.7
	c1-0.1,2-0.1,3.2-0.2c0-5.8,0-11.5,0-17.3c-1.8-0.5-2.9,0.3-3.5,1.8c-0.4,1.1-0.6,2.3-0.9,3.5c-0.4,1.6-2.2,2.4-3.6,1.6
	c-0.3-0.2-0.5-0.6-0.5-0.9c0-3.2,0-6.3,0-9.6c0.8-0.1,1.3-0.1,1.9-0.1c7.1,0,14.3,0,21.4,0c1.5,0,2,0.5,1.9,2
	c-0.1,2.4,0,4.8-0.1,7.3c0,0.5-0.7,1.5-1.1,1.5c-1,0-2.5,0.8-3-1c-0.3-1.4-0.6-2.7-1.1-4.1c-0.6-1.7-1.8-2.4-3.7-1.9
	C268.2,578.2,268.2,583.9,268.2,589.7z"/>
<path fill="#FFFFFF" d="M216.4,568.7c0,3.4,0,6.5-0.1,9.6c0,0.4-0.7,1.1-1.1,1.1c-1-0.1-2.4,0.8-2.9-0.9c-0.4-1.3-0.7-2.7-1.1-4
	c-0.5-1.7-1.6-2.5-3.6-2c0,5.7,0,11.4,0,17.2c1.1,0.1,2.1,0.2,3.3,0.2c0,1.3,0,2.4,0,3.8c-4.6,0-9.1,0.1-13.6,0
	c-1.6,0-0.9-1.5-0.9-2.3c0-0.5,0.5-1.3,1-1.6c0.6-0.3,1.5-0.1,2.4-0.1c0-5.9,0-11.6,0-17.4c-1.8-0.5-2.9,0.2-3.5,1.8
	c-0.4,1.2-0.8,2.5-1,3.9c-0.3,2-1.8,1.3-2.9,1.4c-1.4,0.1-1.3-0.9-1.3-1.8c0-2.5-0.1-5,0.1-7.4c0-0.5,0.7-1.5,1.1-1.5
	C200.2,568.7,208.1,568.7,216.4,568.7z"/>
<path fill="#FFFFFF" d="M305,509.6c0-1.2,0-2.3,0-3.5c1.3-0.1,2.4-0.2,3.6-0.3c0-5.9,0-11.6,0-17.4c-1.9-0.3-3.1,0.3-3.8,2
	c-0.3,0.7-0.5,1.5-0.6,2.2c-0.8,3.2-0.8,3.2-4.4,2.7c0-3.2-0.1-6.4,0.1-9.6c0-0.3,1.1-0.9,1.7-0.9c5.2-0.1,10.4,0,15.7,0
	c2.1,0,4.2-0.1,6.3,0.1c0.5,0,1.3,0.7,1.3,1.1c0.1,3.1,0.1,6.2,0.1,9.5c-1.3,0-2.5,0-3.6,0c-1.4-2.5-0.2-6.9-5.1-7.1
	c0,5.9,0,11.6,0,17.5c1,0.1,2.1,0.2,3.3,0.3c0,1.1,0,2.2,0,3.5C314.8,509.6,310,509.6,305,509.6z"/>
<path fill="#FFFFFF" d="M260.1,530.8c-0.9-0.1-1.7-0.1-2.6-0.2c-0.1-0.4-0.2-0.7-0.3-1.1c-0.2-2.8-0.2-2.8,2.7-2.8
	c3.5,0,7,0,10.5,0.1c0.1,0,0.2,0.1,0.5,0.2c0,1.1,0,2.3,0,3.6c-1,0.1-2,0.2-3.3,0.2c0,1.2,0,2.3,0,3.4c0,4,0,8,0,12
	c0,1.3,0.4,1.8,1.7,1.8c4.4,0.1,5-0.3,6.2-4.5c0.9-3,0.9-3,4.4-2.5c0,3.4,0,6.9,0,10.5c-7.5,0-15,0-22.4,0c-0.9-3.1-0.6-3.5,2.5-3.9
	C260.1,542.1,260.1,536.6,260.1,530.8z"/>
<path fill="#FFFFFF" d="M330.7,506.2c2.9-0.5,2.9-0.5,2.9-3.6c0-4.5,0-9,0-13.6c-1.1-0.1-2-0.2-2.9-0.3c-0.1-0.4-0.2-0.7-0.2-1.1
	c-0.1-2.8-0.1-2.8,2.6-2.8c3.2,0,6.4,0.1,9.6,0c1.4,0,1.7,0.7,1.7,1.9c-0.1,1,0.3,2.4-1.5,2.1c-1.5-0.2-1.8,0.6-1.8,1.9
	c0.1,4.5,0.1,8.9,0,13.4c0,1.3,0.3,2.1,1.8,1.9c1.8-0.2,1.4,1.1,1.5,2.2c0.1,1.2-0.4,1.7-1.6,1.7c-3.2-0.1-6.5,0-9.7,0
	c-2.5,0-2.5,0-2.4-2.5C330.6,506.9,330.7,506.5,330.7,506.2z"/>
<path fill="#FFFFFF" d="M381.4,526.7c0,1.4,0,2.6,0,3.8c-1,0.1-1.9,0.1-2.9,0.2c0,5.6,0,11.2,0,16.9c1,0.1,1.8,0.2,2.8,0.3
	c0,1.2,0,2.4,0,3.6c-4.5,0-8.9,0-13.3,0c-0.6-3.4-0.6-3.4,2.8-4c0-5.5,0-11.1,0-16.8c-1-0.1-1.8-0.1-2.7-0.2
	c-0.1-0.2-0.2-0.3-0.3-0.5c-0.3-3.4-0.3-3.4,3-3.4C374.4,526.7,377.8,526.7,381.4,526.7z"/>
<path fill="#FFFFFF" d="M296.4,547.6c3.3,0.4,3.3,0.4,2.9,3.9c-4.4,0-8.8,0-13.4,0c0-1.1,0-2.3,0-3.6c0.9-0.1,1.8-0.2,2.8-0.3
	c0-5.6,0-11.2,0-16.9c-0.9-0.1-1.8-0.1-2.8-0.2c0-1.2,0-2.4,0-3.7c4.4,0,8.8,0,13.3,0c0,1.2,0,2.3,0,3.7c-0.9,0.1-1.8,0.1-2.9,0.2
	C296.4,536.4,296.4,542,296.4,547.6z"/>
<path fill="#FFFFFF" d="M354.9,589.7c1,0.1,1.8,0.1,2.8,0.2c0,1.2,0,2.4,0,3.9c-2,0-4,0-6,0c-1.7,0-3.4,0-5.2,0
	c-2.4,0-2.4,0-2.3-2.4c0-0.4,0.1-0.9,0.2-1.4c0.9-0.1,1.8-0.1,2.8-0.2c0-5.6,0-11.1,0-16.9c-0.9-0.1-1.8-0.2-2.9-0.3
	c0-1.2,0-2.4,0-3.7c4.5,0,8.9,0,13.4,0c0,1.2,0,2.4,0,3.7c-1,0.1-1.8,0.2-2.8,0.2C354.9,578.4,354.9,583.9,354.9,589.7z"/>
<path fill="#FFFFFF" d="M291,505.8c1,0.1,1.9,0.2,2.9,0.3c0,1.1,0,2.2,0,3.5c-4.4,0-8.8,0-13.3,0c0-1.1,0-2.2,0-3.5
	c0.9-0.1,1.8-0.2,2.8-0.3c0-5.6,0-11.2,0-16.9c-0.9-0.1-1.8-0.2-2.8-0.3c0-1.2,0-2.4,0-3.9c1.6,0,3.2,0,4.9,0c2.1,0,4.2,0,6.3,0
	c2.4,0,2.4,0,2.3,2.5c0,0.4-0.1,0.9-0.1,1.4c-1,0.1-1.9,0.2-2.9,0.3C291,494.5,291,500.1,291,505.8z"/>
</svg>
